<svg xmlns="http://www.w3.org/2000/svg" xmlns:xlink="http://www.w3.org/1999/xlink" width="500" zoomAndPan="magnify" viewBox="0 0 375 374.999991" height="500" preserveAspectRatio="xMidYMid meet" version="1.0"><defs><g/><clipPath id="d7e26aad4d"><path d="M 231 134 L 345 134 L 345 246 L 231 246 Z M 231 134 " clip-rule="nonzero"/></clipPath><clipPath id="59d1452463"><path d="M 249.640625 253.414062 L 223.65625 227.429688 L 329.722656 121.363281 L 355.707031 147.347656 Z M 249.640625 253.414062 " clip-rule="nonzero"/></clipPath><clipPath id="8ff4345edb"><path d="M 249.640625 253.414062 L 223.65625 227.429688 L 329.722656 121.363281 L 355.707031 147.347656 Z M 249.640625 253.414062 " clip-rule="nonzero"/></clipPath><clipPath id="9219a6ff7b"><path d="M 315 151 L 332 151 L 332 169 L 315 169 Z M 315 151 " clip-rule="nonzero"/></clipPath><clipPath id="ef3ff119cf"><path d="M 249.640625 253.414062 L 223.65625 227.429688 L 329.722656 121.363281 L 355.707031 147.347656 Z M 249.640625 253.414062 " clip-rule="nonzero"/></clipPath><clipPath id="49f7110ad8"><path d="M 249.640625 253.414062 L 223.65625 227.429688 L 329.722656 121.363281 L 355.707031 147.347656 Z M 249.640625 253.414062 " clip-rule="nonzero"/></clipPath><clipPath id="6aea159e96"><path d="M 327 151 L 330 151 L 330 155 L 327 155 Z M 327 151 " clip-rule="nonzero"/></clipPath><clipPath id="833b987b31"><path d="M 249.640625 253.414062 L 223.65625 227.429688 L 329.722656 121.363281 L 355.707031 147.347656 Z M 249.640625 253.414062 " clip-rule="nonzero"/></clipPath><clipPath id="54fac58d49"><path d="M 249.640625 253.414062 L 223.65625 227.429688 L 329.722656 121.363281 L 355.707031 147.347656 Z M 249.640625 253.414062 " clip-rule="nonzero"/></clipPath><clipPath id="07315bed62"><path d="M 326 151 L 329 151 L 329 154 L 326 154 Z M 326 151 " clip-rule="nonzero"/></clipPath><clipPath id="708e5b88d6"><path d="M 249.640625 253.414062 L 223.65625 227.429688 L 329.722656 121.363281 L 355.707031 147.347656 Z M 249.640625 253.414062 " clip-rule="nonzero"/></clipPath><clipPath id="5beca85e54"><path d="M 249.640625 253.414062 L 223.65625 227.429688 L 329.722656 121.363281 L 355.707031 147.347656 Z M 249.640625 253.414062 " clip-rule="nonzero"/></clipPath><clipPath id="579904d7a1"><path d="M 326 151 L 327 151 L 327 153 L 326 153 Z M 326 151 " clip-rule="nonzero"/></clipPath><clipPath id="e617c7cc1d"><path d="M 249.640625 253.414062 L 223.65625 227.429688 L 329.722656 121.363281 L 355.707031 147.347656 Z M 249.640625 253.414062 " clip-rule="nonzero"/></clipPath><clipPath id="dd6c76f5d4"><path d="M 249.640625 253.414062 L 223.65625 227.429688 L 329.722656 121.363281 L 355.707031 147.347656 Z M 249.640625 253.414062 " clip-rule="nonzero"/></clipPath><clipPath id="74a3c5f971"><path d="M 326 151 L 327 151 L 327 152 L 326 152 Z M 326 151 " clip-rule="nonzero"/></clipPath><clipPath id="d6b2d3015d"><path d="M 249.640625 253.414062 L 223.65625 227.429688 L 329.722656 121.363281 L 355.707031 147.347656 Z M 249.640625 253.414062 " clip-rule="nonzero"/></clipPath><clipPath id="87a4ca8d3e"><path d="M 249.640625 253.414062 L 223.65625 227.429688 L 329.722656 121.363281 L 355.707031 147.347656 Z M 249.640625 253.414062 " clip-rule="nonzero"/></clipPath></defs><g clip-path="url(#d7e26aad4d)"><g clip-path="url(#59d1452463)"><g clip-path="url(#8ff4345edb)"><path fill="#3b3937" d="M 341.097656 141.03125 C 340.578125 141.546875 340.058594 142.066406 339.542969 142.585938 C 338.933594 143.195312 338.914062 143.1875 339.347656 143.90625 C 339.789062 144.597656 339.964844 145.34375 339.882812 146.152344 C 339.828125 146.742188 339.589844 147.238281 339.160156 147.648438 C 335.695312 151.066406 332.234375 154.496094 328.78125 157.9375 C 322.472656 164.203125 316.164062 170.472656 309.859375 176.742188 C 307.820312 178.78125 305.777344 180.824219 303.730469 182.855469 C 302.617188 183.949219 301.460938 185 300.367188 186.109375 C 300.136719 186.375 299.847656 186.550781 299.507812 186.640625 C 299.164062 186.726562 298.828125 186.710938 298.496094 186.585938 C 298.355469 186.558594 298.214844 186.515625 298.082031 186.464844 C 297.765625 186.300781 297.566406 186.414062 297.363281 186.675781 C 294.480469 190.371094 291.886719 194.261719 289.585938 198.347656 C 285.632812 205.375 281.828125 212.480469 278.164062 219.671875 C 276.386719 223.207031 274.355469 226.59375 272.074219 229.824219 C 270.941406 231.398438 269.746094 232.921875 268.46875 234.378906 C 267.074219 235.992188 265.5625 237.488281 263.933594 238.863281 C 259.382812 242.664062 254.214844 244.949219 248.195312 245.078125 C 245.136719 245.140625 242.226562 244.488281 239.664062 242.707031 C 237.566406 241.25 235.90625 239.371094 234.539062 237.195312 C 231.46875 232.292969 231.324219 227.148438 233.074219 221.84375 C 233.988281 219.070312 235.46875 216.601562 237.320312 214.355469 C 238.144531 213.351562 238.992188 212.367188 239.882812 211.421875 C 243.488281 207.59375 247.628906 204.429688 252.113281 201.691406 C 255.789062 199.445312 259.703125 197.640625 263.550781 195.707031 C 268.710938 193.113281 274.015625 190.839844 279.160156 188.195312 C 283.15625 186.160156 286.917969 183.765625 290.453125 181.007812 C 290.546875 180.933594 290.636719 180.859375 290.722656 180.78125 C 291.195312 180.351562 291.214844 180.34375 290.933594 179.78125 C 290.65625 179.214844 290.679688 178.683594 291.113281 178.203125 C 291.335938 177.957031 291.554688 177.703125 291.789062 177.472656 C 294.59375 174.691406 297.375 171.886719 300.21875 169.144531 C 303.664062 165.832031 307.007812 162.425781 310.449219 159.109375 C 314.230469 155.464844 317.914062 151.726562 321.691406 148.078125 C 324.722656 145.152344 327.710938 142.1875 330.699219 139.226562 C 331.019531 138.882812 331.414062 138.714844 331.886719 138.722656 C 332.707031 138.691406 333.488281 138.855469 334.230469 139.214844 C 334.621094 139.40625 334.882812 139.324219 335.171875 139.03125 C 336.207031 137.964844 337.269531 136.914062 338.320312 135.859375 C 338.769531 135.402344 339.265625 135.003906 339.808594 134.664062 C 340.914062 133.980469 341.960938 134.070312 342.96875 134.90625 C 344.1875 135.914062 344.371094 137.117188 343.496094 138.425781 C 343.347656 138.667969 343.179688 138.898438 342.992188 139.109375 C 342.367188 139.757812 341.71875 140.382812 341.085938 141.015625 Z M 281.300781 207.816406 C 281.085938 207.96875 280.945312 208.167969 280.871094 208.421875 C 280.675781 208.59375 280.507812 208.792969 280.363281 209.011719 C 279.710938 209.996094 279.054688 210.980469 278.398438 211.960938 C 275.464844 216.34375 272.777344 220.882812 269.675781 225.152344 C 268.015625 227.457031 266.230469 229.660156 264.324219 231.765625 C 262.339844 233.933594 260.171875 235.902344 257.828125 237.675781 C 255.433594 239.503906 252.816406 240.902344 249.867188 241.601562 C 247.269531 242.222656 244.65625 242.363281 242.046875 241.546875 C 239.535156 240.773438 237.695312 238.238281 237.667969 235.617188 C 237.632812 233.3125 237.910156 231.046875 238.492188 228.820312 C 239.074219 226.59375 239.945312 224.488281 241.105469 222.503906 C 243.714844 217.980469 246.960938 213.976562 250.84375 210.488281 C 253.167969 208.433594 255.601562 206.519531 258.144531 204.746094 C 262.871094 201.394531 267.757812 198.289062 272.703125 195.269531 C 278.113281 191.964844 283.425781 188.511719 288.429688 184.609375 C 288.976562 184.226562 289.476562 183.792969 289.9375 183.304688 C 289.761719 183.273438 289.695312 183.382812 289.605469 183.445312 C 288.570312 184.191406 287.53125 184.9375 286.460938 185.625 C 282.742188 187.984375 278.964844 190.230469 275.253906 192.589844 C 270.585938 195.558594 265.71875 198.207031 260.96875 201.039062 C 256.710938 203.566406 252.59375 206.285156 248.8125 209.492188 C 245.828125 212.003906 243.195312 214.839844 240.914062 218.003906 C 238.550781 221.308594 236.976562 224.945312 236.355469 228.984375 C 236.082031 230.773438 236.011719 232.574219 236.144531 234.382812 C 236.261719 235.859375 236.675781 237.257812 237.207031 238.652344 C 237.582031 239.632812 238.195312 240.320312 238.921875 240.957031 C 239.820312 241.746094 240.753906 242.488281 241.976562 242.730469 C 244.710938 243.316406 247.449219 243.347656 250.1875 242.816406 C 254.515625 241.9375 258.195312 239.851562 261.386719 236.871094 C 262.6875 235.664062 263.914062 234.382812 265.066406 233.03125 C 267.191406 230.523438 269.207031 227.910156 270.851562 225.0625 C 273.871094 219.847656 276.964844 214.667969 280.226562 209.597656 C 280.464844 209.222656 280.769531 208.875 280.859375 208.417969 C 281.066406 208.261719 281.210938 208.058594 281.289062 207.8125 C 281.339844 207.761719 281.382812 207.710938 281.421875 207.65625 C 281.445312 207.617188 281.546875 207.570312 281.4375 207.519531 C 281.402344 207.539062 281.371094 207.570312 281.351562 207.609375 C 281.328125 207.675781 281.3125 207.746094 281.300781 207.816406 Z M 283.714844 189.402344 C 283.3125 189.496094 283 189.757812 282.667969 189.980469 C 279.53125 192.09375 276.371094 194.171875 273.136719 196.136719 C 266.480469 200.167969 259.941406 204.371094 253.828125 209.207031 C 252.242188 210.445312 250.75 211.789062 249.351562 213.238281 C 247.632812 215.027344 246.039062 216.929688 244.578125 218.9375 C 242.773438 221.445312 241.144531 224.035156 240.085938 226.960938 C 239.085938 229.820312 238.542969 232.769531 238.464844 235.808594 C 238.433594 236.484375 238.554688 237.132812 238.824219 237.757812 C 239.09375 238.382812 239.484375 238.917969 240 239.367188 C 240.789062 240.089844 241.707031 240.574219 242.746094 240.828125 C 243.949219 241.128906 245.171875 241.253906 246.410156 241.195312 C 249.898438 241.027344 253.035156 239.839844 255.902344 237.910156 C 259.640625 235.398438 262.824219 232.273438 265.710938 228.839844 C 267.804688 226.304688 269.75 223.65625 271.535156 220.894531 C 273.582031 217.796875 275.570312 214.664062 277.605469 211.558594 C 281.082031 206.261719 284.707031 201.066406 288.261719 195.820312 C 288.761719 195.082031 289.34375 194.390625 289.667969 193.539062 C 289.722656 193.496094 289.769531 193.445312 289.8125 193.394531 C 289.847656 193.359375 289.941406 193.316406 289.84375 193.253906 C 289.804688 193.277344 289.773438 193.304688 289.75 193.347656 C 289.71875 193.410156 289.695312 193.472656 289.675781 193.539062 C 288.679688 194.621094 287.886719 195.855469 287.039062 197.050781 C 284.992188 199.921875 282.980469 202.804688 280.941406 205.675781 C 279.308594 207.964844 277.628906 210.21875 276.023438 212.527344 C 273.464844 216.191406 270.921875 219.867188 268.046875 223.285156 C 265.804688 225.976562 263.429688 228.542969 260.921875 230.988281 C 259.542969 232.324219 258.050781 233.519531 256.449219 234.582031 C 253.890625 236.265625 251.21875 237.71875 248.25 238.570312 C 246.925781 238.953125 245.582031 239.226562 244.1875 239.179688 C 243.488281 239.160156 242.8125 239.046875 242.242188 238.597656 C 242.027344 238.40625 241.785156 238.359375 241.515625 238.449219 C 241.378906 238.492188 241.238281 238.515625 241.09375 238.515625 C 240.605469 238.515625 240.375 238.226562 240.570312 237.78125 C 240.6875 237.527344 240.664062 237.285156 240.5 237.054688 C 240.230469 236.59375 240.078125 236.097656 240.039062 235.570312 C 239.960938 233.878906 240.199219 232.257812 240.996094 230.738281 C 242.132812 228.503906 243.382812 226.335938 244.75 224.230469 C 247.378906 220.25 250.425781 216.621094 253.890625 213.339844 C 256.0625 211.300781 258.320312 209.382812 260.597656 207.449219 C 263.589844 204.910156 266.625 202.429688 269.726562 200.023438 C 273.660156 196.964844 277.667969 193.992188 281.660156 191.011719 C 282.359375 190.488281 283.109375 190.027344 283.707031 189.378906 C 283.773438 189.355469 283.839844 189.332031 283.902344 189.300781 C 283.9375 189.277344 283.96875 189.246094 283.992188 189.210938 C 283.929688 189.117188 283.894531 189.21875 283.851562 189.242188 C 283.800781 189.292969 283.753906 189.347656 283.710938 189.40625 Z M 301.394531 182.621094 C 301.453125 182.714844 301.402344 182.769531 301.363281 182.824219 C 301.214844 183.011719 301.15625 183.195312 301.371094 183.382812 C 301.585938 183.566406 301.769531 183.457031 301.9375 183.3125 C 302.105469 183.167969 302.25 183.023438 302.398438 182.871094 C 307.839844 177.449219 313.285156 172.027344 318.726562 166.601562 C 320.332031 164.996094 321.925781 163.382812 323.558594 161.804688 C 328.566406 156.949219 333.460938 151.980469 338.425781 147.082031 C 338.925781 146.582031 338.980469 146.011719 338.90625 145.386719 C 338.851562 144.960938 338.71875 144.929688 338.347656 145.171875 C 337.667969 145.628906 337.148438 146.285156 336.347656 146.722656 L 336.808594 146.261719 C 337.308594 145.761719 337.8125 145.257812 338.3125 144.757812 C 338.410156 144.660156 338.53125 144.539062 338.417969 144.386719 C 338.28125 144.199219 338.117188 144.3125 337.984375 144.40625 C 337.691406 144.609375 337.453125 144.898438 337.050781 145.046875 C 337.359375 144.605469 337.820312 144.371094 338.039062 143.851562 C 337.558594 143.773438 337.414062 144.261719 337.003906 144.265625 C 337.109375 144.140625 337.1875 144.050781 337.261719 143.960938 C 337.726562 143.367188 337.753906 143.332031 337.207031 142.777344 C 336.566406 142.136719 335.90625 141.511719 335.210938 140.933594 C 334.601562 140.417969 333.917969 140.039062 333.160156 139.804688 C 332.296875 139.550781 331.585938 139.648438 330.894531 140.335938 C 327.527344 143.6875 324.152344 147.03125 320.742188 150.339844 C 315.5 155.429688 310.316406 160.574219 305.101562 165.6875 C 303.433594 167.332031 301.769531 168.976562 300.105469 170.625 C 299.90625 170.824219 299.730469 171.046875 299.539062 171.253906 C 299.480469 171.304688 299.449219 171.367188 299.449219 171.441406 C 299.449219 171.519531 299.476562 171.582031 299.535156 171.628906 C 299.640625 171.734375 299.75 171.84375 299.902344 171.785156 C 300.035156 171.730469 300.152344 171.65625 300.261719 171.566406 C 300.578125 171.304688 300.886719 171.035156 301.199219 170.765625 C 301.160156 170.933594 301.082031 171.078125 300.964844 171.203125 C 299.808594 172.40625 298.78125 173.730469 297.570312 174.886719 C 297.359375 175.101562 297.164062 175.347656 296.925781 175.53125 C 296.863281 175.574219 296.828125 175.632812 296.8125 175.707031 C 296.800781 175.785156 296.816406 175.851562 296.863281 175.914062 C 296.988281 176.097656 297.148438 176.058594 297.296875 175.957031 C 297.433594 175.863281 297.558594 175.757812 297.679688 175.644531 C 297.886719 175.4375 298.09375 175.230469 298.300781 175.023438 L 298.414062 175.136719 C 298.097656 175.59375 297.757812 176.035156 297.386719 176.453125 C 297.085938 176.753906 296.804688 177.074219 296.53125 177.402344 C 296.410156 177.546875 296.15625 177.726562 296.375 177.929688 C 296.554688 178.109375 296.703125 177.851562 296.84375 177.75 C 297.347656 177.34375 297.851562 176.945312 298.332031 176.503906 C 298.332031 176.605469 298.300781 176.695312 298.238281 176.777344 C 297.734375 177.339844 297.300781 177.960938 296.765625 178.5 C 296.558594 178.707031 296.097656 178.941406 296.421875 179.289062 C 296.761719 179.664062 296.964844 179.160156 297.207031 178.992188 C 297.445312 178.824219 297.570312 178.578125 297.902344 178.457031 C 297.625 179.132812 297.113281 179.539062 296.761719 180.066406 C 296.410156 180.59375 296.402344 180.574219 297.007812 180.859375 C 296.832031 181.113281 296.667969 181.367188 296.484375 181.613281 C 296.335938 181.8125 296.3125 181.996094 296.5 182.183594 C 297.023438 182.703125 297.535156 183.238281 298.085938 183.730469 C 298.394531 184.003906 298.691406 183.835938 298.734375 183.398438 C 298.738281 183.359375 298.695312 183.3125 298.695312 183.269531 C 298.695312 183.242188 298.707031 183.226562 298.734375 183.222656 C 298.761719 183.21875 298.78125 183.226562 298.789062 183.253906 C 298.90625 183.472656 299.304688 183.152344 299.347656 183.609375 C 299.378906 183.910156 299.613281 183.929688 299.875 183.714844 C 300.375 183.324219 300.804688 182.863281 301.394531 182.621094 Z M 262.046875 228.5625 C 263.917969 226.722656 265.777344 224.582031 267.589844 222.398438 C 269.007812 220.6875 270.402344 218.957031 271.683594 217.136719 C 273.472656 214.613281 275.195312 212.039062 277.023438 209.539062 C 280.890625 204.253906 284.558594 198.828125 288.417969 193.539062 C 289.957031 191.414062 291.421875 189.238281 293.039062 187.164062 C 293.980469 185.949219 294.878906 184.707031 295.902344 183.554688 C 296.070312 183.367188 296.128906 183.207031 295.914062 183.015625 C 295.699219 182.820312 295.53125 182.9375 295.378906 183.109375 C 295.171875 183.335938 294.96875 183.566406 294.769531 183.804688 C 293.085938 185.78125 291.425781 187.78125 289.730469 189.757812 C 288.191406 191.550781 286.632812 193.328125 285.074219 195.101562 C 283.199219 197.230469 281.339844 199.375 279.425781 201.464844 C 277.265625 203.816406 275.078125 206.140625 272.855469 208.429688 C 270.050781 211.316406 267.246094 214.195312 264.445312 217.070312 C 259.613281 222.039062 254.675781 226.902344 249.683594 231.707031 C 247.875 233.441406 246.078125 235.1875 244.136719 236.777344 C 243.789062 237.0625 243.425781 237.328125 243.085938 237.621094 C 242.792969 237.882812 242.828125 238.015625 243.222656 238.144531 C 243.660156 238.265625 244.109375 238.3125 244.5625 238.28125 C 246.398438 238.242188 248.128906 237.757812 249.808594 237.09375 C 254.484375 235.234375 258.457031 232.363281 262.046875 228.5625 Z M 294.703125 181.945312 C 294.488281 181.867188 294.402344 182.042969 294.292969 182.148438 C 291.9375 184.445312 289.351562 186.464844 286.710938 188.433594 C 284.210938 190.296875 281.703125 192.152344 279.207031 194.023438 C 276.5625 196.007812 273.921875 197.996094 271.300781 200 C 269.59375 201.308594 267.902344 202.640625 266.234375 203.996094 C 264.402344 205.492188 262.617188 207.03125 260.792969 208.539062 C 258.699219 210.273438 256.636719 212.042969 254.671875 213.917969 C 252.941406 215.535156 251.308594 217.246094 249.769531 219.042969 C 248.507812 220.546875 247.386719 222.15625 246.25 223.753906 C 244.609375 226.105469 243.152344 228.5625 241.875 231.128906 C 241.203125 232.472656 240.914062 233.898438 241 235.402344 C 241.007812 235.617188 241.042969 235.828125 241.101562 236.035156 C 241.160156 236.265625 241.3125 236.347656 241.503906 236.136719 C 241.699219 235.925781 241.859375 235.757812 242.023438 235.550781 C 242.933594 234.402344 243.929688 233.328125 244.945312 232.269531 C 246.929688 230.207031 249.082031 228.308594 251.085938 226.277344 C 253.859375 223.464844 256.558594 220.585938 259.304688 217.746094 C 263.363281 213.550781 267.46875 209.394531 271.671875 205.335938 C 273.0625 203.988281 274.472656 202.640625 275.816406 201.257812 C 278.59375 198.386719 281.414062 195.558594 284.183594 192.675781 C 287.539062 189.179688 290.996094 185.78125 294.464844 182.394531 C 294.589844 182.285156 294.800781 182.1875 294.703125 181.945312 Z M 275.722656 191.074219 C 275.304688 191.042969 275.074219 191.234375 274.824219 191.347656 C 270.816406 193.167969 266.859375 195.089844 262.910156 197.039062 C 259.8125 198.570312 256.703125 200.0625 253.71875 201.808594 C 249.980469 203.972656 246.503906 206.488281 243.285156 209.363281 C 241.003906 211.402344 238.949219 213.652344 237.125 216.109375 C 235.0625 218.910156 233.644531 222.019531 233.121094 225.488281 C 232.5625 229.207031 232.976562 232.78125 234.984375 236.085938 C 235.097656 236.277344 235.15625 236.527344 235.4375 236.597656 C 235.542969 236.371094 235.445312 236.167969 235.410156 235.964844 C 235.308594 235.378906 235.234375 234.789062 235.191406 234.199219 C 234.953125 230.261719 235.59375 226.484375 237.113281 222.863281 C 238.667969 219.117188 241.074219 215.9375 243.800781 212.992188 C 247.160156 209.363281 251.015625 206.320312 255.113281 203.578125 C 258.273438 201.457031 261.585938 199.574219 264.867188 197.644531 C 268.191406 195.695312 271.558594 193.816406 274.8125 191.753906 C 275.160156 191.585938 275.464844 191.355469 275.722656 191.070312 Z M 248.613281 244.070312 C 248.910156 244.15625 249.214844 244.167969 249.515625 244.109375 C 254.675781 243.65625 259.15625 241.625 263.109375 238.382812 C 265.867188 236.125 268.230469 233.484375 270.382812 230.65625 C 272.554688 227.757812 274.503906 224.714844 276.222656 221.523438 C 279.730469 215.117188 282.882812 208.511719 286.539062 202.1875 C 286.660156 202.039062 286.714844 201.867188 286.707031 201.675781 C 286.554688 201.695312 286.511719 201.8125 286.449219 201.90625 L 283.839844 205.792969 C 280.367188 210.980469 276.976562 216.21875 273.878906 221.636719 C 271.398438 225.976562 268.828125 230.242188 265.484375 233.980469 C 263.75 235.921875 261.925781 237.769531 259.847656 239.339844 C 256.691406 241.769531 253.132812 243.273438 249.179688 243.855469 C 248.960938 243.851562 248.773438 243.925781 248.613281 244.070312 Z M 288.464844 189.5625 C 287.734375 190.1875 287.195312 190.785156 286.636719 191.363281 C 283.957031 194.132812 281.292969 196.917969 278.59375 199.675781 C 276.132812 202.191406 273.597656 204.640625 271.066406 207.089844 C 265.800781 212.191406 260.683594 217.441406 255.664062 222.785156 C 253.789062 224.785156 251.820312 226.703125 249.871094 228.628906 C 247.46875 231.007812 244.960938 233.269531 242.699219 235.800781 C 242.386719 236.152344 242.089844 236.523438 241.789062 236.886719 C 241.714844 236.980469 241.640625 237.085938 241.722656 237.207031 C 241.835938 237.382812 241.976562 237.273438 242.097656 237.222656 C 242.21875 237.15625 242.335938 237.078125 242.445312 236.992188 C 243.15625 236.484375 243.820312 235.914062 244.488281 235.347656 C 245.792969 234.25 246.972656 233.019531 248.214844 231.855469 C 251.730469 228.550781 255.148438 225.148438 258.550781 221.730469 C 261.511719 218.773438 264.441406 215.78125 267.328125 212.753906 C 269.925781 210.035156 272.578125 207.367188 275.167969 204.640625 C 277.789062 201.882812 280.351562 199.070312 282.851562 196.199219 C 284.453125 194.363281 286.0625 192.542969 287.675781 190.714844 C 288.007812 190.378906 288.273438 189.996094 288.464844 189.5625 Z M 337.800781 138.878906 L 337.875 138.953125 C 337.683594 139.214844 337.484375 139.476562 337.292969 139.742188 C 337.101562 140.007812 336.789062 140.1875 336.695312 140.59375 C 337.136719 140.5 337.304688 140.117188 337.707031 140.027344 C 337.5625 140.359375 337.382812 140.671875 337.167969 140.96875 C 337.148438 141 337.144531 141.03125 337.15625 141.070312 C 337.167969 141.105469 337.195312 141.128906 337.230469 141.140625 C 337.429688 141.140625 337.503906 140.835938 337.757812 140.863281 C 337.714844 140.976562 337.691406 141.039062 337.664062 141.105469 C 337.464844 141.617188 337.566406 141.902344 338.058594 142.21875 C 338.445312 142.46875 338.628906 142.128906 338.832031 141.9375 C 339.835938 140.984375 340.871094 140.039062 341.808594 139.011719 C 342.222656 138.589844 342.578125 138.117188 342.871094 137.601562 C 342.957031 137.453125 343.015625 137.289062 343.046875 137.121094 C 343.074219 136.949219 343.070312 136.777344 343.039062 136.605469 C 343.003906 136.433594 342.941406 136.273438 342.847656 136.128906 C 342.753906 135.980469 342.640625 135.851562 342.5 135.746094 C 341.710938 135.078125 341.03125 135.027344 340.164062 135.59375 C 340.03125 135.683594 339.902344 135.789062 339.773438 135.894531 C 338.46875 136.957031 337.371094 138.234375 336.179688 139.414062 C 336.066406 139.535156 335.960938 139.660156 335.863281 139.792969 C 335.789062 139.890625 335.730469 139.996094 335.820312 140.109375 C 335.910156 140.226562 336.078125 140.226562 336.203125 140.152344 C 336.320312 140.078125 336.429688 139.992188 336.53125 139.902344 C 336.957031 139.550781 337.378906 139.214844 337.800781 138.878906 Z M 297.4375 173.699219 C 297.625 173.914062 297.808594 173.832031 297.972656 173.679688 C 298.085938 173.566406 298.226562 173.445312 298.085938 173.273438 C 297.996094 173.1875 297.894531 173.148438 297.773438 173.148438 C 297.648438 173.148438 297.546875 173.191406 297.460938 173.273438 C 297.394531 173.328125 297.359375 173.394531 297.355469 173.480469 C 297.347656 173.5625 297.375 173.636719 297.4375 173.695312 Z M 294.96875 180.308594 C 294.90625 180.359375 294.875 180.425781 294.875 180.503906 C 294.871094 180.585938 294.902344 180.652344 294.960938 180.703125 C 295.160156 180.902344 295.339844 180.84375 295.503906 180.667969 C 295.648438 180.523438 295.652344 180.382812 295.488281 180.242188 C 295.328125 180.105469 295.15625 180.117188 294.96875 180.308594 Z M 299.488281 171.960938 C 299.402344 171.875 299.300781 171.828125 299.179688 171.816406 C 299.0625 171.808594 298.953125 171.839844 298.859375 171.910156 C 298.738281 172.03125 298.761719 172.152344 298.867188 172.269531 C 299.035156 172.449219 299.214844 172.507812 299.40625 172.316406 C 299.515625 172.222656 299.617188 172.117188 299.496094 171.96875 Z M 296.3125 181.265625 C 296.40625 181.140625 296.589844 181.015625 296.394531 180.859375 C 296.238281 180.726562 296.078125 180.828125 295.964844 180.953125 C 295.851562 181.082031 295.636719 181.253906 295.832031 181.425781 C 296.023438 181.597656 296.171875 181.382812 296.316406 181.269531 Z M 300.71875 183.648438 C 300.589844 183.773438 300.5 183.921875 300.675781 184.109375 C 300.820312 184.253906 300.960938 184.234375 301.097656 184.105469 C 301.261719 183.941406 301.25 183.78125 301.101562 183.617188 C 300.992188 183.480469 300.867188 183.523438 300.730469 183.644531 Z M 298.289062 172.492188 C 298.132812 172.625 298.136719 172.730469 298.21875 172.832031 C 298.367188 173.015625 298.539062 173.125 298.75 172.925781 C 298.835938 172.839844 298.921875 172.730469 298.8125 172.625 C 298.667969 172.476562 298.480469 172.378906 298.304688 172.492188 Z M 296.675781 174.484375 C 296.832031 174.621094 296.972656 174.558594 297.09375 174.425781 C 297.214844 174.296875 297.214844 174.183594 297.089844 174.066406 C 297.03125 174 296.960938 173.964844 296.871094 173.96875 C 296.785156 173.96875 296.714844 174 296.660156 174.066406 C 296.53125 174.203125 296.546875 174.351562 296.6875 174.484375 Z M 296.253906 179.460938 C 296.121094 179.414062 295.945312 179.347656 295.804688 179.539062 C 295.703125 179.679688 295.769531 179.796875 295.875 179.902344 C 296.03125 180.039062 296.171875 179.988281 296.292969 179.855469 C 296.417969 179.71875 296.433594 179.617188 296.253906 179.460938 Z M 296.75 176.160156 C 296.683594 176.105469 296.609375 176.078125 296.527344 176.082031 C 296.441406 176.085938 296.371094 176.117188 296.3125 176.179688 C 296.1875 176.304688 296.121094 176.453125 296.253906 176.597656 C 296.417969 176.777344 296.546875 176.617188 296.65625 176.515625 C 296.769531 176.410156 296.867188 176.320312 296.75 176.160156 Z M 295.675781 176.808594 C 295.574219 176.910156 295.492188 177.042969 295.609375 177.164062 C 295.765625 177.320312 295.902344 177.214844 296.019531 177.09375 C 296.140625 176.976562 296.179688 176.859375 296.039062 176.746094 C 295.894531 176.632812 295.785156 176.703125 295.675781 176.808594 Z M 295.796875 178.207031 C 295.699219 178.304688 295.578125 178.429688 295.738281 178.558594 C 295.898438 178.691406 295.996094 178.554688 296.09375 178.457031 C 296.191406 178.355469 296.261719 178.265625 296.15625 178.15625 C 296.019531 178.007812 295.90625 178.125 295.796875 178.207031 Z M 299.554688 185.414062 C 299.667969 185.488281 299.769531 185.488281 299.855469 185.371094 C 299.953125 185.234375 299.9375 185.105469 299.8125 184.988281 C 299.777344 184.9375 299.726562 184.910156 299.664062 184.910156 C 299.605469 184.90625 299.554688 184.929688 299.511719 184.976562 C 299.367188 185.132812 299.425781 185.28125 299.554688 185.414062 Z M 296.375 174.8125 C 296.261719 174.734375 296.148438 174.625 296.007812 174.734375 C 295.886719 174.828125 295.929688 174.945312 296.015625 175.035156 C 296.105469 175.121094 296.234375 175.234375 296.382812 175.109375 C 296.480469 175.035156 296.472656 174.925781 296.375 174.8125 Z M 295.679688 175.417969 C 295.605469 175.367188 295.507812 175.28125 295.386719 175.367188 C 295.265625 175.453125 295.296875 175.566406 295.386719 175.65625 C 295.476562 175.746094 295.585938 175.808594 295.699219 175.726562 C 295.8125 175.648438 295.785156 175.542969 295.683594 175.421875 Z M 292.375 178.253906 C 292.3125 178.316406 292.246094 178.414062 292.347656 178.535156 C 292.445312 178.65625 292.59375 178.640625 292.710938 178.527344 C 292.761719 178.492188 292.785156 178.445312 292.785156 178.382812 C 292.789062 178.320312 292.765625 178.269531 292.71875 178.230469 C 292.617188 178.144531 292.503906 178.144531 292.378906 178.257812 Z M 299.074219 183.953125 C 298.9375 183.925781 298.835938 183.972656 298.773438 184.097656 C 298.738281 184.144531 298.722656 184.199219 298.730469 184.257812 C 298.742188 184.316406 298.773438 184.363281 298.820312 184.398438 C 298.972656 184.5 299.078125 184.402344 299.160156 184.289062 C 299.238281 184.171875 299.21875 184.082031 299.074219 183.957031 Z M 294.6875 176.015625 C 294.640625 176.0625 294.621094 176.113281 294.625 176.175781 C 294.628906 176.238281 294.65625 176.289062 294.707031 176.328125 C 294.820312 176.441406 294.953125 176.46875 295.078125 176.351562 C 295.128906 176.3125 295.152344 176.261719 295.152344 176.195312 C 295.152344 176.132812 295.125 176.082031 295.074219 176.042969 C 294.953125 175.917969 294.824219 175.90625 294.6875 176.015625 Z M 293.917969 176.785156 C 293.851562 176.886719 293.90625 176.960938 293.96875 177.027344 C 294.0625 177.121094 294.167969 177.152344 294.269531 177.039062 C 294.351562 176.957031 294.304688 176.863281 294.222656 176.792969 C 294.121094 176.699219 294.019531 176.699219 293.921875 176.796875 Z M 295.226562 177.566406 C 295.125 177.46875 295.019531 177.460938 294.925781 177.558594 C 294.832031 177.652344 294.816406 177.757812 294.917969 177.855469 C 295.023438 177.953125 295.09375 177.90625 295.167969 177.851562 C 295.246094 177.796875 295.304688 177.691406 295.230469 177.578125 Z M 294.261719 179.667969 C 294.191406 179.738281 294.113281 179.839844 294.230469 179.949219 C 294.308594 180.023438 294.402344 179.957031 294.464844 179.890625 C 294.523438 179.828125 294.652344 179.746094 294.527344 179.621094 C 294.441406 179.558594 294.351562 179.613281 294.265625 179.679688 Z M 293.730469 178.996094 C 293.644531 178.910156 293.558594 178.941406 293.488281 178.992188 C 293.417969 179.046875 293.308594 179.148438 293.394531 179.273438 C 293.480469 179.398438 293.5625 179.324219 293.628906 179.273438 C 293.691406 179.222656 293.804688 179.136719 293.734375 179.007812 Z M 295.324219 179.089844 C 295.363281 179.027344 295.367188 178.953125 295.3125 178.90625 C 295.277344 178.875 295.234375 178.863281 295.1875 178.871094 C 295.140625 178.875 295.105469 178.902344 295.078125 178.941406 C 295.019531 179.003906 295.023438 179.066406 295.089844 179.121094 C 295.179688 179.207031 295.257812 179.199219 295.328125 179.101562 Z M 300.113281 184.398438 C 300.082031 184.539062 300.132812 184.632812 300.265625 184.683594 C 300.296875 184.703125 300.328125 184.707031 300.363281 184.691406 C 300.398438 184.671875 300.414062 184.648438 300.417969 184.609375 C 300.433594 184.5 300.394531 184.421875 300.300781 184.371094 C 300.222656 184.3125 300.160156 184.324219 300.117188 184.410156 Z M 293.304688 177.535156 C 293.316406 177.574219 293.3125 177.632812 293.34375 177.65625 C 293.40625 177.730469 293.46875 177.726562 293.523438 177.644531 C 293.542969 177.625 293.515625 177.550781 293.492188 177.523438 C 293.425781 177.46875 293.367188 177.472656 293.316406 177.539062 Z M 293.304688 177.535156 " fill-opacity="1" fill-rule="nonzero"/></g></g></g><g clip-path="url(#9219a6ff7b)"><g clip-path="url(#ef3ff119cf)"><g clip-path="url(#49f7110ad8)"><path fill="#3b3937" d="M 331.574219 151.800781 C 330.25 153.339844 328.867188 154.824219 327.472656 156.304688 C 324.457031 159.5 321.492188 162.742188 318.359375 165.828125 C 317.691406 166.5 317.015625 167.160156 316.332031 167.8125 C 316.179688 167.960938 316.015625 168.09375 315.839844 168.214844 C 315.714844 168.300781 315.550781 168.445312 315.40625 168.257812 C 315.257812 168.070312 315.410156 167.9375 315.507812 167.816406 C 315.644531 167.652344 315.789062 167.496094 315.941406 167.347656 C 320.234375 163.015625 324.527344 158.6875 328.820312 154.355469 C 329.703125 153.46875 330.589844 152.585938 331.476562 151.699219 Z M 331.574219 151.800781 " fill-opacity="1" fill-rule="nonzero"/></g></g></g><g clip-path="url(#6aea159e96)"><g clip-path="url(#833b987b31)"><g clip-path="url(#54fac58d49)"><path fill="#3b3937" d="M 329.945312 151.542969 C 329.054688 152.722656 328.125 153.675781 327.21875 154.742188 C 327.152344 154.652344 327.128906 154.550781 327.144531 154.441406 C 327.164062 154.335938 327.214844 154.25 327.304688 154.183594 C 328.148438 153.335938 328.996094 152.492188 329.945312 151.542969 Z M 329.945312 151.542969 " fill-opacity="1" fill-rule="nonzero"/></g></g></g><g clip-path="url(#07315bed62)"><g clip-path="url(#708e5b88d6)"><g clip-path="url(#5beca85e54)"><path fill="#3b3937" d="M 328.347656 151.707031 C 328 152.433594 327.519531 153.066406 326.910156 153.59375 C 326.828125 153.675781 326.710938 153.765625 326.605469 153.660156 C 326.5 153.554688 326.613281 153.445312 326.691406 153.363281 C 327.242188 152.808594 327.796875 152.257812 328.347656 151.707031 Z M 328.347656 151.707031 " fill-opacity="1" fill-rule="nonzero"/></g></g></g><g clip-path="url(#579904d7a1)"><g clip-path="url(#e617c7cc1d)"><g clip-path="url(#dd6c76f5d4)"><path fill="#3b3937" d="M 326.898438 151.816406 C 326.882812 152.070312 326.753906 152.242188 326.515625 152.332031 C 326.644531 152.160156 326.777344 151.984375 326.898438 151.816406 Z M 326.898438 151.816406 " fill-opacity="1" fill-rule="nonzero"/></g></g></g><g clip-path="url(#74a3c5f971)"><g clip-path="url(#d6b2d3015d)"><g clip-path="url(#87a4ca8d3e)"><path fill="#3b3937" d="M 326.105469 151.507812 L 326.234375 151.375 C 326.269531 151.539062 326.09375 151.550781 326.105469 151.507812 Z M 326.105469 151.507812 " fill-opacity="1" fill-rule="nonzero"/></g></g></g><g fill="#967f71" fill-opacity="1"><g transform="translate(5.232502, 183.247833)"><g><path d="M 33.382812 -10.226562 C 33.183594 -10.425781 32.945312 -10.582031 32.664062 -10.582031 C 32.386719 -10.625 32.109375 -10.542969 31.910156 -10.382812 C 31.75 -10.265625 16.433594 1.910156 3.660156 -3.34375 C 1.074219 -4.417969 0.953125 -5.808594 1.035156 -6.566406 C 1.035156 -6.683594 1.074219 -6.804688 1.195312 -6.882812 C 1.273438 -6.964844 1.433594 -6.964844 1.550781 -6.921875 C 4.136719 -6.765625 6.722656 -7.441406 8.953125 -8.832031 C 10.863281 -10.066406 11.179688 -11.417969 11.0625 -12.292969 C 10.980469 -13.726562 9.828125 -14.878906 8.355469 -14.921875 C 5.210938 -15.078125 -0.0390625 -11.339844 -0.914062 -7.359375 C -1.273438 -5.886719 -1.234375 -3.101562 2.863281 -1.433594 C 5.371094 -0.398438 7.996094 0.078125 10.664062 0.078125 C 22.082031 0.078125 32.664062 -8.316406 33.222656 -8.753906 C 33.421875 -8.914062 33.582031 -9.191406 33.582031 -9.429688 C 33.621094 -9.707031 33.542969 -9.988281 33.382812 -10.226562 Z M 2.46875 -9.351562 C 4.019531 -11.5 6.605469 -12.929688 8.234375 -12.8125 C 8.671875 -12.8125 8.914062 -12.652344 8.992188 -12.054688 C 9.03125 -11.65625 8.59375 -11.101562 7.796875 -10.582031 C 6.167969 -9.507812 1.273438 -7.757812 2.46875 -9.351562 Z M 2.46875 -9.351562 "/></g></g></g><g fill="#967f71" fill-opacity="1"><g transform="translate(37.100002, 183.247833)"><g><path d="M 27.292969 -11.019531 C 27.09375 -11.21875 26.855469 -11.300781 26.578125 -11.300781 C 26.300781 -11.300781 26.019531 -11.21875 25.824219 -11.019531 C 22.003906 -7.402344 17.308594 -4.855469 12.175781 -3.621094 C 11.976562 -3.542969 11.738281 -3.621094 11.617188 -3.78125 C 11.5 -3.980469 11.457031 -4.179688 11.578125 -4.375 C 12.292969 -5.769531 12.136719 -7.441406 11.21875 -8.714844 C 10.664062 -9.46875 9.945312 -10.105469 9.113281 -10.582031 C 7.996094 -11.339844 6.765625 -12.214844 6.722656 -13.128906 C 6.765625 -13.648438 6.964844 -14.125 7.320312 -14.523438 L 9.46875 -16.550781 C 9.867188 -16.949219 9.90625 -17.585938 9.550781 -17.984375 C 9.191406 -18.421875 8.59375 -18.5 8.117188 -18.144531 C 7.28125 -17.507812 6.484375 -16.789062 5.808594 -15.953125 L -0.316406 -10.226562 C -0.597656 -9.988281 -0.714844 -9.589844 -0.636719 -9.230469 C -0.558594 -8.832031 -0.277344 -8.554688 0.078125 -8.433594 C 0.4375 -8.355469 0.835938 -8.433594 1.113281 -8.714844 L 4.136719 -11.539062 C 4.296875 -11.699219 4.496094 -11.738281 4.695312 -11.738281 C 4.894531 -11.699219 5.054688 -11.578125 5.132812 -11.417969 C 5.886719 -10.382812 6.84375 -9.507812 7.917969 -8.871094 C 8.515625 -8.515625 9.03125 -8.117188 9.46875 -7.597656 C 9.867188 -7.160156 10.066406 -6.566406 9.945312 -5.96875 C 9.828125 -5.371094 9.46875 -4.855469 8.953125 -4.574219 C 6.40625 -3.144531 3.183594 -3.820312 1.433594 -6.167969 C 1.152344 -6.605469 0.515625 -6.765625 0.0390625 -6.445312 C -0.4375 -6.167969 -0.597656 -5.570312 -0.316406 -5.054688 C 0.996094 -2.785156 3.34375 -1.3125 5.96875 -1.113281 C 6.644531 -0.996094 7.28125 -0.953125 7.957031 -0.953125 C 14.683594 -0.953125 22.957031 -5.171875 27.292969 -9.550781 C 27.691406 -9.945312 27.691406 -10.625 27.292969 -11.019531 Z M 27.292969 -11.019531 "/></g></g></g><g fill="#967f71" fill-opacity="1"><g transform="translate(62.8009, 183.247833)"><g><path d="M 27.292969 -11.019531 C 27.09375 -11.21875 26.855469 -11.300781 26.578125 -11.300781 C 26.300781 -11.300781 26.019531 -11.21875 25.824219 -11.019531 C 22.003906 -7.402344 17.308594 -4.855469 12.175781 -3.621094 C 11.976562 -3.542969 11.738281 -3.621094 11.617188 -3.78125 C 11.5 -3.980469 11.457031 -4.179688 11.578125 -4.375 C 12.292969 -5.769531 12.136719 -7.441406 11.21875 -8.714844 C 10.664062 -9.46875 9.945312 -10.105469 9.113281 -10.582031 C 7.996094 -11.339844 6.765625 -12.214844 6.722656 -13.128906 C 6.765625 -13.648438 6.964844 -14.125 7.320312 -14.523438 L 9.46875 -16.550781 C 9.867188 -16.949219 9.90625 -17.585938 9.550781 -17.984375 C 9.191406 -18.421875 8.59375 -18.5 8.117188 -18.144531 C 7.28125 -17.507812 6.484375 -16.789062 5.808594 -15.953125 L -0.316406 -10.226562 C -0.597656 -9.988281 -0.714844 -9.589844 -0.636719 -9.230469 C -0.558594 -8.832031 -0.277344 -8.554688 0.078125 -8.433594 C 0.4375 -8.355469 0.835938 -8.433594 1.113281 -8.714844 L 4.136719 -11.539062 C 4.296875 -11.699219 4.496094 -11.738281 4.695312 -11.738281 C 4.894531 -11.699219 5.054688 -11.578125 5.132812 -11.417969 C 5.886719 -10.382812 6.84375 -9.507812 7.917969 -8.871094 C 8.515625 -8.515625 9.03125 -8.117188 9.46875 -7.597656 C 9.867188 -7.160156 10.066406 -6.566406 9.945312 -5.96875 C 9.828125 -5.371094 9.46875 -4.855469 8.953125 -4.574219 C 6.40625 -3.144531 3.183594 -3.820312 1.433594 -6.167969 C 1.152344 -6.605469 0.515625 -6.765625 0.0390625 -6.445312 C -0.4375 -6.167969 -0.597656 -5.570312 -0.316406 -5.054688 C 0.996094 -2.785156 3.34375 -1.3125 5.96875 -1.113281 C 6.644531 -0.996094 7.28125 -0.953125 7.957031 -0.953125 C 14.683594 -0.953125 22.957031 -5.171875 27.292969 -9.550781 C 27.691406 -9.945312 27.691406 -10.625 27.292969 -11.019531 Z M 27.292969 -11.019531 "/></g></g></g><g fill="#967f71" fill-opacity="1"><g transform="translate(88.501798, 183.247833)"><g><path d="M 33.382812 -10.226562 C 33.183594 -10.425781 32.945312 -10.582031 32.664062 -10.582031 C 32.386719 -10.625 32.109375 -10.542969 31.910156 -10.382812 C 31.75 -10.265625 16.433594 1.910156 3.660156 -3.34375 C 1.074219 -4.417969 0.953125 -5.808594 1.035156 -6.566406 C 1.035156 -6.683594 1.074219 -6.804688 1.195312 -6.882812 C 1.273438 -6.964844 1.433594 -6.964844 1.550781 -6.921875 C 4.136719 -6.765625 6.722656 -7.441406 8.953125 -8.832031 C 10.863281 -10.066406 11.179688 -11.417969 11.0625 -12.292969 C 10.980469 -13.726562 9.828125 -14.878906 8.355469 -14.921875 C 5.210938 -15.078125 -0.0390625 -11.339844 -0.914062 -7.359375 C -1.273438 -5.886719 -1.234375 -3.101562 2.863281 -1.433594 C 5.371094 -0.398438 7.996094 0.078125 10.664062 0.078125 C 22.082031 0.078125 32.664062 -8.316406 33.222656 -8.753906 C 33.421875 -8.914062 33.582031 -9.191406 33.582031 -9.429688 C 33.621094 -9.707031 33.542969 -9.988281 33.382812 -10.226562 Z M 2.46875 -9.351562 C 4.019531 -11.5 6.605469 -12.929688 8.234375 -12.8125 C 8.671875 -12.8125 8.914062 -12.652344 8.992188 -12.054688 C 9.03125 -11.65625 8.59375 -11.101562 7.796875 -10.582031 C 6.167969 -9.507812 1.273438 -7.757812 2.46875 -9.351562 Z M 2.46875 -9.351562 "/></g></g></g><g fill="#967f71" fill-opacity="1"><g transform="translate(120.369298, 183.247833)"><g><path d="M 34.773438 -9.90625 C 34.535156 -10.066406 34.296875 -10.1875 34.019531 -10.1875 C 33.738281 -10.144531 33.460938 -10.027344 33.300781 -9.828125 C 33.183594 -9.75 24.429688 -0.398438 16.832031 -3.460938 C 15.199219 -4.335938 13.886719 -5.648438 12.972656 -7.28125 C 12.652344 -7.796875 12.253906 -8.316406 11.777344 -8.792969 C 11.261719 -9.429688 10.464844 -9.789062 9.628906 -9.828125 C 7.597656 -9.988281 5.132812 -8.632812 2.1875 -5.847656 C 2.109375 -5.769531 1.988281 -5.730469 1.871094 -5.808594 C 1.75 -5.847656 1.671875 -6.007812 1.710938 -6.128906 L 2.585938 -10.027344 C 2.746094 -10.582031 2.386719 -11.179688 1.832031 -11.300781 C 1.273438 -11.417969 0.714844 -11.0625 0.558594 -10.503906 L -1.433594 -1.789062 C -1.550781 -1.3125 -1.3125 -0.835938 -0.875 -0.636719 C -0.4375 -0.398438 0.078125 -0.515625 0.398438 -0.875 C 5.730469 -7.121094 8.433594 -7.71875 9.390625 -7.757812 C 10.34375 -7.796875 10.941406 -6.566406 11.261719 -6.085938 C 12.375 -4.136719 14.046875 -2.546875 16.035156 -1.550781 C 24.945312 2.070312 34.417969 -7.996094 34.816406 -8.433594 C 35.210938 -8.832031 35.171875 -9.507812 34.773438 -9.90625 Z M 34.773438 -9.90625 "/></g></g></g><g fill="#967f71" fill-opacity="1"><g transform="translate(153.50992, 183.247833)"><g><path d="M 27.292969 -10.824219 C 26.898438 -11.21875 26.21875 -11.21875 25.824219 -10.78125 C 25.742188 -10.703125 14.960938 0.160156 7.796875 -2.546875 C 4.617188 -3.78125 3.261719 -7.480469 2.746094 -11.140625 C 3.460938 -12.890625 4.65625 -15.796875 5.769531 -19.058594 C 5.886719 -19.457031 6.007812 -19.496094 6.484375 -19.535156 C 11.855469 -19.933594 17.1875 -20.132812 20.332031 -20.132812 C 20.929688 -20.132812 21.367188 -20.609375 21.367188 -21.167969 C 21.367188 -21.765625 20.929688 -22.203125 20.332031 -22.203125 C 17.308594 -22.203125 12.335938 -21.964844 7.242188 -21.683594 C 7.042969 -21.644531 6.683594 -21.765625 6.964844 -22.480469 C 8.871094 -27.929688 10.226562 -33.460938 9.390625 -35.132812 C 8.554688 -36.804688 7.441406 -36.84375 6.882812 -36.722656 C 3.9375 -36.167969 1.789062 -28.527344 0.835938 -22.28125 C 0.757812 -21.722656 0.476562 -21.246094 -0.0390625 -21.207031 C -6.285156 -20.730469 -11.417969 -20.371094 -11.5 -20.371094 C -12.09375 -20.332031 -12.535156 -19.855469 -12.492188 -19.257812 C -12.492188 -18.699219 -12.015625 -18.222656 -11.417969 -18.261719 L -11.339844 -18.261719 C -11.21875 -18.261719 -6.40625 -18.621094 -0.398438 -19.058594 C -0.199219 -19.097656 0 -19.058594 0.160156 -18.898438 C 0.316406 -18.78125 0.4375 -18.582031 0.4375 -18.382812 C -0.160156 -8.914062 2.226562 -2.425781 7.042969 -0.597656 C 8.078125 -0.238281 9.152344 -0.0390625 10.265625 -0.0390625 C 18.144531 -0.0390625 26.898438 -8.914062 27.335938 -9.308594 C 27.535156 -9.507812 27.613281 -9.789062 27.613281 -10.066406 C 27.613281 -10.34375 27.492188 -10.625 27.292969 -10.824219 Z M 2.945312 -22.359375 C 3.859375 -28.410156 5.691406 -33.183594 6.765625 -34.417969 C 6.882812 -34.496094 7.042969 -34.535156 7.203125 -34.496094 C 7.320312 -34.457031 7.441406 -34.375 7.519531 -34.21875 C 7.996094 -33.183594 6.644531 -28.128906 4.617188 -22.121094 C 4.535156 -21.765625 4.257812 -21.484375 3.859375 -21.445312 C 3.660156 -21.40625 3.460938 -21.40625 3.222656 -21.40625 C 2.824219 -21.40625 2.90625 -22.042969 2.945312 -22.320312 Z M 2.46875 -16.113281 C 2.070312 -16.113281 2.226562 -18.898438 2.585938 -19.296875 C 2.90625 -19.496094 3.300781 -19.535156 3.621094 -19.335938 C 3.980469 -19.019531 2.90625 -16.113281 2.46875 -16.113281 Z M 2.46875 -16.113281 "/></g></g></g><g fill="#967f71" fill-opacity="1"><g transform="translate(178.932307, 183.247833)"><g><path d="M 25.78125 -10.742188 C 25.34375 -11.140625 24.707031 -11.140625 24.308594 -10.703125 C 24.152344 -10.582031 11.261719 2.546875 2.707031 -3.699219 C 0.078125 -5.609375 2.625 -10.582031 2.664062 -10.625 C 2.90625 -11.140625 2.707031 -11.738281 2.1875 -12.015625 C 1.671875 -12.253906 1.074219 -12.09375 0.796875 -11.578125 C 0.636719 -11.339844 -2.585938 -5.011719 1.472656 -2.027344 C 3.34375 -0.636719 5.648438 0.121094 7.996094 0.078125 C 16.589844 0.078125 25.304688 -8.792969 25.78125 -9.269531 C 25.980469 -9.46875 26.101562 -9.707031 26.101562 -9.988281 C 26.0625 -10.265625 25.980469 -10.542969 25.78125 -10.742188 Z M 0.359375 -13.886719 C 0.515625 -13.886719 0.675781 -13.925781 0.835938 -14.003906 C 1.789062 -14.484375 2.625 -15.121094 3.382812 -15.875 C 3.78125 -16.3125 3.738281 -16.949219 3.34375 -17.347656 C 2.90625 -17.746094 2.269531 -17.746094 1.871094 -17.308594 C 1.273438 -16.710938 0.597656 -16.234375 -0.160156 -15.835938 C -0.558594 -15.636719 -0.796875 -15.121094 -0.675781 -14.683594 C -0.558594 -14.203125 -0.121094 -13.886719 0.359375 -13.886719 Z M 0.359375 -13.886719 "/></g></g></g><g fill="#967f71" fill-opacity="1"><g transform="translate(203.360082, 183.247833)"><g><path d="M 33.261719 -9.628906 C 32.863281 -10.066406 32.1875 -10.105469 31.75 -9.707031 C 31.632812 -9.589844 19.8125 1.035156 12.492188 -3.78125 C 9.589844 -5.691406 8.871094 -10.304688 8.871094 -10.34375 C 8.832031 -10.824219 8.476562 -11.179688 7.996094 -11.261719 C 7.558594 -11.300781 7.082031 -11.0625 6.882812 -10.664062 C 5.011719 -6.523438 1.710938 -1.273438 0.796875 -1.871094 C 0.714844 -1.871094 0.558594 -2.027344 0.4375 -2.308594 C -0.0390625 -3.621094 0.121094 -5.054688 0.796875 -6.285156 C 2.308594 -9.390625 5.09375 -11.617188 8.433594 -12.453125 C 8.792969 -12.535156 9.070312 -12.8125 9.191406 -13.167969 C 9.308594 -13.527344 9.191406 -13.925781 8.953125 -14.203125 C 8.671875 -14.441406 8.316406 -14.5625 7.957031 -14.484375 C 3.980469 -13.527344 0.675781 -10.824219 -1.113281 -7.160156 C -2.070312 -5.371094 -2.1875 -3.222656 -1.433594 -1.351562 C -1.074219 -0.4375 -0.199219 0.199219 0.796875 0.199219 L 0.835938 0.199219 C 2.785156 0.160156 5.210938 -2.269531 6.882812 -4.894531 C 7.082031 -5.210938 7.441406 -5.371094 7.796875 -5.332031 C 8.15625 -5.332031 8.476562 -5.132812 8.632812 -4.8125 C 9.308594 -3.699219 10.226562 -2.746094 11.339844 -2.070312 C 20.011719 3.699219 32.625 -7.679688 33.183594 -8.15625 C 33.382812 -8.355469 33.5 -8.632812 33.5 -8.871094 C 33.542969 -9.152344 33.421875 -9.429688 33.261719 -9.628906 Z M 33.261719 -9.628906 "/></g></g></g><g fill="#967f71" fill-opacity="1"><g transform="translate(235.506092, 183.247833)"><g><path d="M 27.375 -10.1875 C 27.175781 -10.382812 26.898438 -10.503906 26.617188 -10.503906 C 26.339844 -10.503906 26.0625 -10.382812 25.863281 -10.1875 C 25.78125 -10.105469 15.320312 0.199219 7.796875 -2.070312 C 5.132812 -2.863281 3.660156 -5.410156 2.824219 -8.117188 C 2.585938 -8.992188 2.664062 -9.945312 3.0625 -10.78125 C 5.847656 -16.433594 12.691406 -31.234375 9.308594 -34.855469 C 8.515625 -35.847656 7.203125 -36.167969 6.046875 -35.691406 C 2.027344 -33.9375 -0.636719 -22.203125 -0.160156 -13.648438 C -0.078125 -12.335938 0.078125 -11.019531 0.316406 -9.707031 C 0.316406 -9.550781 0.316406 -9.429688 0.398438 -9.308594 C 1.433594 -4.296875 3.78125 -1.074219 7.203125 -0.078125 C 8.15625 0.199219 9.113281 0.359375 10.066406 0.359375 C 18.144531 0.359375 26.9375 -8.316406 27.335938 -8.714844 C 27.535156 -8.914062 27.652344 -9.152344 27.652344 -9.429688 C 27.652344 -9.75 27.574219 -9.988281 27.375 -10.1875 Z M 2.027344 -14.242188 C 0.796875 -20.890625 4.894531 -32.945312 6.882812 -33.78125 C 6.964844 -33.820312 7.042969 -33.859375 7.121094 -33.859375 C 7.28125 -33.859375 7.480469 -33.78125 7.757812 -33.460938 C 9.351562 -31.789062 4.8125 -17.386719 2.707031 -14.003906 C 2.507812 -13.648438 2.109375 -13.847656 2.027344 -14.242188 Z M 2.027344 -14.242188 "/></g></g></g><g fill="#967f71" fill-opacity="1"><g transform="translate(261.724192, 183.247833)"><g><path d="M 27.292969 -11.019531 C 27.09375 -11.21875 26.855469 -11.300781 26.578125 -11.300781 C 26.300781 -11.300781 26.019531 -11.21875 25.824219 -11.019531 C 22.003906 -7.402344 17.308594 -4.855469 12.175781 -3.621094 C 11.976562 -3.542969 11.738281 -3.621094 11.617188 -3.78125 C 11.5 -3.980469 11.457031 -4.179688 11.578125 -4.375 C 12.292969 -5.769531 12.136719 -7.441406 11.21875 -8.714844 C 10.664062 -9.46875 9.945312 -10.105469 9.113281 -10.582031 C 7.996094 -11.339844 6.765625 -12.214844 6.722656 -13.128906 C 6.765625 -13.648438 6.964844 -14.125 7.320312 -14.523438 L 9.46875 -16.550781 C 9.867188 -16.949219 9.90625 -17.585938 9.550781 -17.984375 C 9.191406 -18.421875 8.59375 -18.5 8.117188 -18.144531 C 7.28125 -17.507812 6.484375 -16.789062 5.808594 -15.953125 L -0.316406 -10.226562 C -0.597656 -9.988281 -0.714844 -9.589844 -0.636719 -9.230469 C -0.558594 -8.832031 -0.277344 -8.554688 0.078125 -8.433594 C 0.4375 -8.355469 0.835938 -8.433594 1.113281 -8.714844 L 4.136719 -11.539062 C 4.296875 -11.699219 4.496094 -11.738281 4.695312 -11.738281 C 4.894531 -11.699219 5.054688 -11.578125 5.132812 -11.417969 C 5.886719 -10.382812 6.84375 -9.507812 7.917969 -8.871094 C 8.515625 -8.515625 9.03125 -8.117188 9.46875 -7.597656 C 9.867188 -7.160156 10.066406 -6.566406 9.945312 -5.96875 C 9.828125 -5.371094 9.46875 -4.855469 8.953125 -4.574219 C 6.40625 -3.144531 3.183594 -3.820312 1.433594 -6.167969 C 1.152344 -6.605469 0.515625 -6.765625 0.0390625 -6.445312 C -0.4375 -6.167969 -0.597656 -5.570312 -0.316406 -5.054688 C 0.996094 -2.785156 3.34375 -1.3125 5.96875 -1.113281 C 6.644531 -0.996094 7.28125 -0.953125 7.957031 -0.953125 C 14.683594 -0.953125 22.957031 -5.171875 27.292969 -9.550781 C 27.691406 -9.945312 27.691406 -10.625 27.292969 -11.019531 Z M 27.292969 -11.019531 "/></g></g></g></svg>