<svg xmlns="http://www.w3.org/2000/svg" xmlns:xlink="http://www.w3.org/1999/xlink" width="500" zoomAndPan="magnify" viewBox="0 0 375 374.999991" height="500" preserveAspectRatio="xMidYMid meet" version="1.0"><defs><clipPath id="b434cbcf28"><path d="M 107 11 L 291 11 L 291 366 L 107 366 Z M 107 11 " clip-rule="nonzero"/></clipPath><clipPath id="0ccd92ba49"><path d="M 307.617188 343.40625 L 222.628906 381.171875 L 67.308594 31.625 L 152.296875 -6.136719 Z M 307.617188 343.40625 " clip-rule="nonzero"/></clipPath><clipPath id="677269db82"><path d="M 307.617188 343.40625 L 222.628906 381.171875 L 67.308594 31.625 L 152.296875 -6.136719 Z M 307.617188 343.40625 " clip-rule="nonzero"/></clipPath><clipPath id="6342860d90"><path d="M 140 55 L 166 55 L 166 109 L 140 109 Z M 140 55 " clip-rule="nonzero"/></clipPath><clipPath id="dd0be79275"><path d="M 307.617188 343.40625 L 222.628906 381.171875 L 67.308594 31.625 L 152.296875 -6.136719 Z M 307.617188 343.40625 " clip-rule="nonzero"/></clipPath><clipPath id="0a706b410c"><path d="M 307.617188 343.40625 L 222.628906 381.171875 L 67.308594 31.625 L 152.296875 -6.136719 Z M 307.617188 343.40625 " clip-rule="nonzero"/></clipPath><clipPath id="f2d45af8b3"><path d="M 138 58 L 145 58 L 145 69 L 138 69 Z M 138 58 " clip-rule="nonzero"/></clipPath><clipPath id="a9eed9405b"><path d="M 307.617188 343.40625 L 222.628906 381.171875 L 67.308594 31.625 L 152.296875 -6.136719 Z M 307.617188 343.40625 " clip-rule="nonzero"/></clipPath><clipPath id="3c1a5a2d5a"><path d="M 307.617188 343.40625 L 222.628906 381.171875 L 67.308594 31.625 L 152.296875 -6.136719 Z M 307.617188 343.40625 " clip-rule="nonzero"/></clipPath><clipPath id="50e7721fa8"><path d="M 137 62 L 142 62 L 142 69 L 137 69 Z M 137 62 " clip-rule="nonzero"/></clipPath><clipPath id="86383c6f87"><path d="M 307.617188 343.40625 L 222.628906 381.171875 L 67.308594 31.625 L 152.296875 -6.136719 Z M 307.617188 343.40625 " clip-rule="nonzero"/></clipPath><clipPath id="6ed0270811"><path d="M 307.617188 343.40625 L 222.628906 381.171875 L 67.308594 31.625 L 152.296875 -6.136719 Z M 307.617188 343.40625 " clip-rule="nonzero"/></clipPath><clipPath id="4e19926da8"><path d="M 136 66 L 138 66 L 138 68 L 136 68 Z M 136 66 " clip-rule="nonzero"/></clipPath><clipPath id="405e83d65e"><path d="M 307.617188 343.40625 L 222.628906 381.171875 L 67.308594 31.625 L 152.296875 -6.136719 Z M 307.617188 343.40625 " clip-rule="nonzero"/></clipPath><clipPath id="c57d38550a"><path d="M 307.617188 343.40625 L 222.628906 381.171875 L 67.308594 31.625 L 152.296875 -6.136719 Z M 307.617188 343.40625 " clip-rule="nonzero"/></clipPath><clipPath id="dc0cbb585b"><path d="M 135 67 L 136 67 L 136 68 L 135 68 Z M 135 67 " clip-rule="nonzero"/></clipPath><clipPath id="bae7da5b51"><path d="M 307.617188 343.40625 L 222.628906 381.171875 L 67.308594 31.625 L 152.296875 -6.136719 Z M 307.617188 343.40625 " clip-rule="nonzero"/></clipPath><clipPath id="d05b101584"><path d="M 307.617188 343.40625 L 222.628906 381.171875 L 67.308594 31.625 L 152.296875 -6.136719 Z M 307.617188 343.40625 " clip-rule="nonzero"/></clipPath></defs><g clip-path="url(#b434cbcf28)"><g clip-path="url(#0ccd92ba49)"><g clip-path="url(#677269db82)"><path fill="#e4e3e2" d="M 124.140625 22.71875 C 124.898438 24.425781 125.65625 26.136719 126.414062 27.84375 C 127.308594 29.851562 127.273438 29.886719 129.371094 29.527344 C 130.355469 29.328125 131.34375 29.292969 132.339844 29.429688 C 133.332031 29.566406 134.277344 29.863281 135.167969 30.324219 C 136.515625 30.996094 137.476562 32.023438 138.054688 33.410156 C 143.023438 44.792969 148.019531 56.171875 153.042969 67.539062 C 162.1875 88.296875 171.332031 109.046875 180.480469 129.796875 C 183.464844 136.519531 186.453125 143.246094 189.414062 149.980469 C 191.003906 153.628906 192.441406 157.347656 194.082031 160.96875 C 194.289062 161.355469 194.433594 161.765625 194.515625 162.195312 C 194.597656 162.628906 194.613281 163.0625 194.5625 163.496094 C 194.511719 163.933594 194.398438 164.351562 194.222656 164.753906 C 194.042969 165.15625 193.8125 165.523438 193.523438 165.855469 C 193.324219 166.160156 193.105469 166.449219 192.859375 166.71875 C 192.1875 167.324219 192.273438 167.890625 192.714844 168.621094 C 198.859375 178.875 205.726562 188.617188 213.320312 197.847656 C 226.390625 213.703125 239.78125 229.289062 253.492188 244.609375 C 260.261719 252.089844 266.4375 260.03125 272.027344 268.429688 C 274.738281 272.5625 277.257812 276.808594 279.558594 281.1875 C 282.117188 285.984375 284.292969 290.949219 286.085938 296.082031 C 290.96875 310.386719 291.714844 324.773438 286.578125 339.179688 C 283.96875 346.503906 279.792969 352.808594 273.269531 357.253906 C 267.917969 360.894531 261.972656 363.109375 255.585938 364.347656 C 241.207031 367.121094 228.898438 362.722656 217.921875 353.679688 C 212.175781 348.953125 207.671875 343.167969 204.023438 336.699219 C 202.390625 333.8125 200.824219 330.894531 199.390625 327.910156 C 193.585938 315.820312 189.835938 303.078125 187.402344 289.910156 C 185.398438 279.101562 184.664062 268.148438 183.5625 257.230469 C 182.078125 242.589844 181.492188 227.894531 179.875 213.25 C 178.664062 201.886719 176.386719 190.738281 173.050781 179.808594 C 172.960938 179.523438 172.863281 179.234375 172.757812 178.957031 C 172.175781 177.441406 172.167969 177.386719 170.582031 177.53125 C 168.996094 177.675781 167.75 177.128906 167.007812 175.652344 C 166.628906 174.898438 166.226562 174.152344 165.890625 173.382812 C 161.839844 164.160156 157.710938 154.96875 153.789062 145.695312 C 149.054688 134.460938 144.007812 123.375 139.265625 112.148438 C 134.054688 99.816406 128.527344 87.617188 123.296875 75.289062 C 119.109375 65.398438 114.792969 55.574219 110.480469 45.742188 C 110.226562 45.230469 110.09375 44.6875 110.070312 44.117188 C 110.046875 43.546875 110.144531 42.996094 110.355469 42.464844 C 111.023438 40.488281 112.121094 38.78125 113.640625 37.34375 C 114.449219 36.597656 114.492188 35.90625 114.054688 34.949219 C 112.464844 31.5 110.941406 28.015625 109.394531 24.546875 C 108.714844 23.0625 108.21875 21.515625 107.902344 19.914062 C 107.28125 16.65625 108.4375 14.257812 111.324219 12.632812 C 114.816406 10.664062 117.832031 11.339844 120.136719 14.625 C 120.578125 15.199219 120.96875 15.808594 121.304688 16.453125 C 122.265625 18.53125 123.164062 20.644531 124.097656 22.738281 Z M 228.257812 226.238281 C 228.421875 226.886719 228.773438 227.414062 229.304688 227.816406 C 229.539062 228.441406 229.847656 229.023438 230.238281 229.566406 C 231.984375 232.019531 233.71875 234.488281 235.453125 236.953125 C 243.175781 247.953125 251.5 258.523438 258.804688 269.820312 C 262.761719 275.886719 266.367188 282.148438 269.625 288.613281 C 272.964844 295.328125 275.675781 302.285156 277.757812 309.488281 C 279.917969 316.855469 280.867188 324.359375 279.867188 332.007812 C 278.988281 338.75 276.957031 345.082031 272.667969 350.527344 C 268.570312 355.773438 260.910156 357.8125 254.679688 355.46875 C 249.1875 353.421875 244.070312 350.679688 239.328125 347.242188 C 234.585938 343.804688 230.386719 339.796875 226.734375 335.21875 C 218.382812 324.855469 211.832031 313.453125 207.082031 301.019531 C 204.316406 293.613281 201.984375 286.074219 200.082031 278.402344 C 196.414062 264.089844 193.476562 249.621094 190.789062 235.09375 C 187.847656 219.207031 184.472656 203.410156 179.757812 187.933594 C 179.339844 186.28125 178.765625 184.6875 178.027344 183.152344 C 177.792969 183.535156 177.996094 183.800781 178.0625 184.066406 C 178.890625 187.214844 179.71875 190.363281 180.382812 193.546875 C 182.601562 204.546875 184.511719 215.585938 186.75 226.574219 C 189.566406 240.394531 191.4375 254.390625 193.851562 268.277344 C 195.992188 280.714844 198.707031 293 202.890625 304.925781 C 206.140625 314.328125 210.480469 323.195312 215.90625 331.527344 C 221.597656 340.179688 228.789062 347.269531 237.78125 352.46875 C 241.777344 354.761719 245.976562 356.585938 250.378906 357.941406 C 253.976562 359.027344 257.667969 359.328125 261.445312 359.351562 C 264.101562 359.363281 266.289062 358.546875 268.457031 357.40625 C 271.125 355.996094 273.726562 354.464844 275.410156 351.789062 C 279.269531 345.832031 281.808594 339.359375 283.027344 332.371094 C 284.855469 321.285156 283.242188 310.617188 279.0625 300.296875 C 277.378906 296.09375 275.457031 292 273.296875 288.015625 C 269.277344 280.667969 264.914062 273.472656 259.65625 266.941406 C 250.03125 254.960938 240.566406 242.851562 231.503906 230.429688 C 230.835938 229.519531 230.289062 228.480469 229.289062 227.839844 C 229.101562 227.207031 228.75 226.679688 228.238281 226.257812 C 228.167969 226.097656 228.085938 225.945312 227.988281 225.800781 C 227.914062 225.710938 227.902344 225.425781 227.679688 225.636719 C 227.695312 225.746094 227.738281 225.84375 227.8125 225.929688 C 227.953125 226.042969 228.101562 226.148438 228.257812 226.238281 Z M 186.839844 203.539062 C 186.699219 204.582031 187.039062 205.566406 187.265625 206.558594 C 189.433594 215.957031 191.503906 225.375 193.234375 234.863281 C 196.765625 254.390625 200.816406 273.789062 206.746094 292.753906 C 208.242188 297.664062 210.074219 302.445312 212.242188 307.09375 C 214.933594 312.835938 217.992188 318.367188 221.429688 323.691406 C 225.734375 330.277344 230.394531 336.53125 236.363281 341.742188 C 242.230469 346.757812 248.722656 350.757812 255.84375 353.746094 C 256.625 354.085938 257.429688 354.339844 258.265625 354.496094 C 259.101562 354.65625 259.941406 354.722656 260.792969 354.691406 C 261.640625 354.660156 262.476562 354.53125 263.296875 354.3125 C 264.117188 354.089844 264.90625 353.78125 265.65625 353.382812 C 268.082031 352.167969 270.0625 350.445312 271.597656 348.207031 C 273.402344 345.625 274.796875 342.835938 275.78125 339.839844 C 278.527344 331.402344 278.550781 322.863281 276.574219 314.277344 C 274 303.082031 269.472656 292.644531 263.949219 282.625 C 259.839844 275.316406 255.324219 268.265625 250.40625 261.476562 C 244.914062 253.761719 239.289062 246.160156 233.785156 238.460938 C 224.382812 225.324219 215.351562 211.933594 206.144531 198.660156 C 204.847656 196.792969 203.730469 194.769531 202.011719 193.210938 C 201.957031 193.046875 201.886719 192.886719 201.800781 192.734375 C 201.753906 192.628906 201.730469 192.359375 201.496094 192.539062 C 201.511719 192.652344 201.554688 192.757812 201.628906 192.84375 C 201.75 192.972656 201.878906 193.09375 202.019531 193.203125 C 203.6875 196.5625 205.894531 199.582031 207.953125 202.699219 C 212.898438 210.207031 217.914062 217.632812 222.863281 225.125 C 226.8125 231.105469 230.628906 237.171875 234.640625 243.113281 C 241.007812 252.558594 247.414062 261.988281 252.910156 271.960938 C 257.261719 279.765625 261.195312 287.769531 264.714844 295.980469 C 266.628906 300.488281 268.121094 305.128906 269.1875 309.910156 C 270.863281 317.535156 271.882812 325.222656 271.226562 333.054688 C 270.933594 336.554688 270.363281 339.996094 269 343.265625 C 268.316406 344.902344 267.445312 346.402344 265.859375 347.347656 C 265.5625 347.503906 265.324219 347.722656 265.144531 348.007812 C 264.964844 348.292969 264.867188 348.601562 264.851562 348.9375 C 264.835938 349.300781 264.761719 349.65625 264.628906 349.996094 C 264.191406 351.15625 263.300781 351.441406 262.425781 350.5625 C 262.195312 350.328125 261.917969 350.164062 261.597656 350.074219 C 261.28125 349.984375 260.960938 349.980469 260.636719 350.0625 C 259.304688 350.273438 257.996094 350.183594 256.703125 349.789062 C 252.632812 348.417969 249.003906 346.359375 246.132812 343.070312 C 241.867188 338.308594 237.863281 333.339844 234.117188 328.160156 C 227.066406 318.246094 221.222656 307.664062 216.585938 296.421875 C 213.714844 289.382812 211.210938 282.253906 208.695312 275.058594 C 205.390625 265.617188 202.25 256.121094 199.363281 246.546875 C 195.671875 234.382812 192.25 222.132812 188.792969 209.902344 C 188.191406 207.761719 187.777344 205.554688 186.78125 203.535156 C 186.789062 203.359375 186.789062 203.183594 186.777344 203.007812 C 186.75 202.894531 186.707031 202.792969 186.640625 202.703125 C 186.355469 202.769531 186.566406 202.945312 186.589844 203.066406 C 186.664062 203.234375 186.75 203.398438 186.847656 203.554688 Z M 186.75 155.316406 C 187.03125 155.257812 187.117188 155.433594 187.203125 155.578125 C 187.515625 156.101562 187.898438 156.410156 188.53125 156.070312 C 189.164062 155.734375 189.074219 155.195312 188.878906 154.660156 C 188.6875 154.125 188.472656 153.652344 188.253906 153.15625 C 180.332031 135.242188 172.410156 117.324219 164.480469 99.398438 C 162.128906 94.109375 159.75 88.832031 157.480469 83.503906 C 150.511719 67.140625 143.171875 50.941406 136.054688 34.640625 C 135.320312 32.992188 134.019531 32.332031 132.46875 31.933594 C 131.417969 31.671875 131.222656 31.957031 131.464844 33.058594 C 131.929688 35.09375 133.015625 36.9375 133.324219 39.238281 L 132.652344 37.722656 C 131.917969 36.074219 131.183594 34.417969 130.449219 32.765625 C 130.308594 32.445312 130.128906 32.042969 129.667969 32.175781 C 129.101562 32.328125 129.21875 32.8125 129.320312 33.21875 C 129.539062 34.105469 130.003906 34.929688 129.996094 36.03125 C 129.230469 34.886719 129.089844 33.578125 128.050781 32.578125 C 127.433594 33.648438 128.460938 34.4375 128.097656 35.414062 C 127.898438 35.050781 127.757812 34.789062 127.609375 34.527344 C 126.628906 32.871094 126.566406 32.777344 124.761719 33.566406 C 122.671875 34.496094 120.589844 35.488281 118.597656 36.609375 C 116.820312 37.574219 115.3125 38.847656 114.066406 40.4375 C 112.691406 42.246094 112.28125 44.035156 113.28125 46.300781 C 118.175781 57.390625 123.039062 68.484375 127.800781 79.628906 C 135.117188 96.765625 142.613281 113.820312 150.015625 130.910156 C 152.394531 136.386719 154.785156 141.855469 157.183594 147.320312 C 157.480469 147.980469 157.851562 148.601562 158.167969 149.25 C 158.199219 149.335938 158.246094 149.414062 158.308594 149.480469 C 158.371094 149.546875 158.445312 149.597656 158.53125 149.632812 C 158.617188 149.664062 158.703125 149.679688 158.796875 149.671875 C 158.886719 149.667969 158.972656 149.644531 159.054688 149.597656 C 159.390625 149.449219 159.753906 149.289062 159.753906 148.871094 C 159.742188 148.511719 159.675781 148.160156 159.554688 147.816406 C 159.222656 146.824219 158.859375 145.84375 158.507812 144.859375 C 158.871094 145.097656 159.144531 145.417969 159.332031 145.8125 C 161.136719 149.667969 163.347656 153.328125 164.992188 157.265625 C 165.304688 157.96875 165.710938 158.660156 165.9375 159.390625 C 165.980469 159.578125 166.085938 159.722656 166.25 159.820312 C 166.417969 159.921875 166.59375 159.945312 166.78125 159.894531 C 167.328125 159.765625 167.378906 159.351562 167.277344 158.90625 C 167.175781 158.496094 167.046875 158.097656 166.882812 157.710938 C 166.578125 157.023438 166.273438 156.339844 165.96875 155.65625 L 166.339844 155.488281 C 167.144531 156.664062 167.875 157.882812 168.535156 159.144531 C 168.976562 160.136719 169.46875 161.105469 170.003906 162.046875 C 170.238281 162.46875 170.433594 163.246094 171.113281 162.914062 C 171.703125 162.652344 171.230469 162.058594 171.113281 161.628906 C 170.605469 160.0625 170.117188 158.492188 169.503906 156.949219 C 169.746094 157.042969 169.933594 157.203125 170.066406 157.425781 C 170.945312 159.140625 172.023438 160.746094 172.820312 162.511719 C 173.125 163.191406 173.265625 164.5 174.375 164.054688 C 175.566406 163.585938 174.558594 162.640625 174.378906 161.914062 C 174.199219 161.1875 173.722656 160.671875 173.742188 159.765625 C 175.085938 161.050781 175.59375 162.640625 176.523438 163.960938 C 177.449219 165.277344 177.402344 165.28125 178.621094 164.105469 C 179.066406 164.757812 179.519531 165.382812 179.933594 166.039062 C 180.269531 166.582031 180.6875 166.804688 181.292969 166.53125 C 183 165.773438 184.726562 165.039062 186.386719 164.1875 C 187.316406 163.707031 187.1875 162.847656 186.195312 162.351562 C 186.097656 162.300781 185.949219 162.363281 185.84375 162.324219 C 185.78125 162.296875 185.757812 162.25 185.773438 162.179688 C 185.785156 162.113281 185.828125 162.078125 185.898438 162.082031 C 186.523438 162.011719 186.125 160.765625 187.242188 161.082031 C 187.988281 161.285156 188.238281 160.75 187.964844 159.929688 C 187.5 158.382812 186.792969 156.933594 186.75 155.316406 Z M 259.988281 291.070312 C 257.320312 284.9375 253.933594 278.546875 250.402344 272.230469 C 247.632812 267.285156 244.796875 262.378906 241.644531 257.667969 C 237.277344 251.09375 232.738281 244.628906 228.46875 237.984375 C 219.449219 223.933594 209.925781 210.226562 200.882812 196.1875 C 197.242188 190.570312 193.414062 185.089844 189.96875 179.339844 C 187.941406 175.988281 185.804688 172.703125 184.007812 169.21875 C 183.707031 168.644531 183.386719 168.351562 182.738281 168.6875 C 182.085938 169.023438 182.210938 169.527344 182.472656 170.050781 C 182.828125 170.746094 183.191406 171.445312 183.570312 172.132812 C 186.730469 177.953125 189.96875 183.742188 193.113281 189.585938 C 195.972656 194.890625 198.773438 200.226562 201.5625 205.566406 C 204.910156 211.980469 208.308594 218.363281 211.527344 224.839844 C 215.148438 232.132812 218.667969 239.472656 222.089844 246.859375 C 226.382812 256.179688 230.667969 265.492188 234.945312 274.792969 C 242.351562 290.839844 249.402344 307.042969 256.265625 323.328125 C 258.746094 329.21875 261.257812 335.097656 263.265625 341.171875 C 263.628906 342.261719 263.925781 343.367188 264.316406 344.441406 C 264.667969 345.382812 265.019531 345.414062 265.675781 344.605469 C 266.359375 343.671875 266.871094 342.652344 267.214844 341.546875 C 268.773438 337.152344 269.195312 332.59375 269.136719 327.996094 C 268.953125 315.179688 265.746094 303.101562 259.988281 291.070312 Z M 179.109375 170.585938 C 178.730469 171.015625 179.070312 171.382812 179.222656 171.738281 C 182.53125 179.453125 184.976562 187.449219 187.253906 195.535156 C 189.410156 203.183594 191.535156 210.847656 193.710938 218.503906 C 196.023438 226.609375 198.34375 234.710938 200.726562 242.789062 C 202.285156 248.042969 203.90625 253.285156 205.613281 258.496094 C 207.496094 264.21875 209.53125 269.886719 211.457031 275.601562 C 213.671875 282.171875 215.992188 288.695312 218.660156 295.097656 C 220.929688 300.691406 223.496094 306.144531 226.371094 311.453125 C 228.785156 315.832031 231.585938 319.984375 234.34375 324.152344 C 238.425781 330.210938 242.925781 335.9375 247.847656 341.335938 C 250.425781 344.167969 253.535156 346.175781 257.179688 347.359375 C 257.695312 347.53125 258.222656 347.644531 258.765625 347.699219 C 259.367188 347.773438 259.695312 347.476562 259.371094 346.828125 C 259.050781 346.179688 258.792969 345.636719 258.457031 345.058594 C 256.558594 341.835938 254.914062 338.480469 253.328125 335.101562 C 250.226562 328.484375 247.679688 321.625 244.683594 314.992188 C 240.53125 305.816406 236.148438 296.753906 231.910156 287.621094 C 225.632812 274.113281 219.503906 260.539062 213.691406 246.824219 C 211.761719 242.273438 209.835938 237.6875 207.773438 233.222656 C 203.496094 223.980469 199.34375 214.675781 195.015625 205.449219 C 189.765625 194.257812 184.839844 182.914062 179.957031 171.5625 C 179.8125 171.164062 179.773438 170.570312 179.109375 170.578125 Z M 183.582031 224.058594 C 183.136719 225.023438 183.375 225.742188 183.421875 226.449219 C 184.109375 237.640625 185.089844 248.8125 186.136719 259.976562 C 186.960938 268.742188 187.691406 277.507812 189.132812 286.199219 C 190.875 297.066406 193.695312 307.648438 197.59375 317.9375 C 200.363281 325.234375 203.828125 332.183594 208 338.78125 C 212.769531 346.253906 218.847656 352.488281 226.589844 356.925781 C 234.890625 361.679688 243.730469 363.992188 253.359375 362.269531 C 253.921875 362.167969 254.5625 362.265625 254.980469 361.664062 C 254.546875 361.199219 253.96875 361.25 253.464844 361.144531 C 251.984375 360.847656 250.523438 360.476562 249.082031 360.03125 C 244.378906 358.523438 239.90625 356.503906 235.671875 353.96875 C 231.433594 351.433594 227.539062 348.453125 223.984375 345.027344 C 216.511719 337.882812 211.15625 329.238281 206.648438 320.050781 C 201.085938 308.734375 197.367188 296.773438 194.574219 284.519531 C 192.40625 275.058594 190.945312 265.460938 189.34375 255.890625 C 187.71875 246.203125 186.316406 236.476562 184.375 226.847656 C 184.285156 225.867188 184.019531 224.9375 183.578125 224.054688 Z M 284.574219 337.261719 C 285.042969 336.628906 285.34375 335.925781 285.476562 335.148438 C 289.0625 322.484375 288.304688 309.976562 284.203125 297.597656 C 281.339844 288.96875 277.226562 280.925781 272.46875 273.210938 C 267.574219 265.378906 262.125 257.949219 256.125 250.929688 C 244.125 236.691406 231.332031 223.125 219.660156 208.617188 C 219.417969 208.191406 219.066406 207.902344 218.605469 207.742188 C 218.511719 208.121094 218.746094 208.335938 218.917969 208.574219 L 225.761719 218.34375 C 234.902344 231.371094 244.246094 244.246094 254.277344 256.597656 C 262.308594 266.484375 270.089844 276.515625 275.921875 287.90625 C 278.953125 293.816406 281.675781 299.84375 283.523438 306.222656 C 284.945312 311.011719 285.746094 315.90625 285.925781 320.902344 C 286.101562 325.898438 285.652344 330.835938 284.570312 335.71875 C 284.375 336.234375 284.375 336.75 284.574219 337.261719 Z M 191.511719 192.410156 C 192.335938 194.726562 193.265625 196.550781 194.128906 198.410156 C 198.265625 207.328125 202.453125 216.222656 206.539062 225.160156 C 210.277344 233.332031 213.789062 241.601562 217.300781 249.871094 C 224.621094 267.078125 232.425781 284.0625 240.550781 300.90625 C 243.59375 307.203125 246.351562 313.640625 249.152344 320.050781 C 252.609375 327.945312 255.707031 335.976562 259.65625 343.683594 C 260.207031 344.75 260.816406 345.792969 261.402344 346.84375 C 261.554688 347.109375 261.742188 347.378906 262.097656 347.300781 C 262.617188 347.191406 262.492188 346.753906 262.472656 346.425781 C 262.429688 346.074219 262.351562 345.726562 262.25 345.382812 C 261.6875 343.226562 260.929688 341.128906 260.199219 339.015625 C 258.773438 334.910156 256.933594 330.972656 255.296875 326.957031 C 250.644531 315.5625 245.671875 304.308594 240.660156 293.078125 C 236.328125 283.328125 231.890625 273.617188 227.328125 263.964844 C 223.238281 255.296875 219.3125 246.539062 215.203125 237.878906 C 211.039062 229.113281 206.691406 220.4375 202.15625 211.855469 C 199.253906 206.363281 196.394531 200.855469 193.527344 195.347656 C 193.03125 194.246094 192.359375 193.265625 191.511719 192.410156 Z M 116.066406 28.558594 L 116.308594 28.453125 C 116.757812 29.152344 117.195312 29.867188 117.65625 30.566406 C 118.113281 31.261719 118.257812 32.167969 119.128906 32.765625 C 119.308594 31.640625 118.550781 30.886719 118.707031 29.847656 C 119.359375 30.5 119.9375 31.210938 120.441406 31.988281 C 120.496094 32.066406 120.574219 32.109375 120.671875 32.113281 C 120.769531 32.117188 120.847656 32.078125 120.910156 32.003906 C 121.089844 31.535156 120.433594 31.070312 120.730469 30.496094 C 120.953125 30.699219 121.085938 30.816406 121.214844 30.941406 C 122.253906 31.886719 123.011719 31.902344 124.207031 31.027344 C 125.144531 30.34375 124.507812 29.59375 124.238281 28.9375 C 122.890625 25.671875 121.589844 22.34375 120.003906 19.171875 C 119.375 17.792969 118.578125 16.519531 117.621094 15.351562 C 117.34375 15.003906 117.019531 14.714844 116.640625 14.488281 C 116.257812 14.261719 115.851562 14.109375 115.417969 14.035156 C 114.980469 13.957031 114.546875 13.960938 114.109375 14.042969 C 113.675781 14.125 113.269531 14.28125 112.894531 14.515625 C 110.597656 15.78125 109.867188 17.34375 110.429688 19.921875 C 110.515625 20.328125 110.65625 20.726562 110.785156 21.132812 C 112.121094 25.210938 114.152344 28.988281 115.871094 32.898438 C 116.050781 33.28125 116.257812 33.652344 116.488281 34.007812 C 116.644531 34.269531 116.847656 34.507812 117.199219 34.398438 C 117.550781 34.289062 117.707031 33.898438 117.644531 33.527344 C 117.566406 33.183594 117.464844 32.847656 117.339844 32.519531 C 116.902344 31.183594 116.484375 29.875 116.066406 28.558594 Z M 162.054688 156.488281 C 162.738281 156.242188 162.707031 155.734375 162.492188 155.195312 C 162.324219 154.824219 162.167969 154.382812 161.636719 154.558594 C 161.503906 154.621094 161.382812 154.707031 161.28125 154.816406 C 161.179688 154.925781 161.105469 155.046875 161.050781 155.1875 C 161 155.324219 160.972656 155.46875 160.976562 155.617188 C 160.980469 155.765625 161.015625 155.90625 161.074219 156.042969 C 161.136719 156.25 161.265625 156.394531 161.460938 156.484375 C 161.65625 156.574219 161.851562 156.574219 162.046875 156.488281 Z M 175.472656 168.445312 C 175.503906 168.535156 175.554688 168.617188 175.621094 168.6875 C 175.6875 168.757812 175.765625 168.8125 175.855469 168.847656 C 175.945312 168.882812 176.035156 168.902344 176.132812 168.894531 C 176.230469 168.890625 176.320312 168.867188 176.410156 168.824219 C 177.050781 168.535156 177.078125 168.054688 176.804688 167.503906 C 176.59375 167.027344 176.273438 166.882812 175.792969 167.144531 C 175.3125 167.402344 175.195312 167.820312 175.472656 168.445312 Z M 159.789062 150.019531 C 159.511719 150.144531 159.308594 150.339844 159.175781 150.617188 C 159.046875 150.890625 159.023438 151.175781 159.101562 151.46875 C 159.28125 151.867188 159.589844 151.917969 159.964844 151.773438 C 160.542969 151.546875 160.839844 151.167969 160.5625 150.546875 C 160.433594 150.195312 160.28125 149.859375 159.816406 150.007812 Z M 178.949219 166.132812 C 178.746094 165.796875 178.617188 165.242188 178.066406 165.558594 C 177.609375 165.8125 177.710938 166.285156 177.90625 166.671875 C 178.097656 167.058594 178.320312 167.722656 178.902344 167.421875 C 179.484375 167.125 179.105469 166.574219 178.96875 166.125 Z M 188.570312 157.863281 C 188.757812 158.28125 189.023438 158.636719 189.625 158.394531 C 190.101562 158.183594 190.183594 157.824219 190 157.382812 C 189.757812 156.839844 189.367188 156.722656 188.847656 156.929688 C 188.421875 157.0625 188.414062 157.394531 188.582031 157.832031 Z M 159.972656 153.351562 C 160.136719 153.851562 160.394531 153.9375 160.714844 153.835938 C 161.28125 153.65625 161.691406 153.347656 161.410156 152.65625 C 161.285156 152.382812 161.101562 152.070312 160.757812 152.234375 C 160.273438 152.441406 159.871094 152.796875 159.984375 153.320312 Z M 163.230469 159.023438 C 163.695312 158.777344 163.671875 158.382812 163.46875 157.976562 C 163.265625 157.570312 163.007812 157.460938 162.613281 157.65625 C 162.511719 157.691406 162.425781 157.746094 162.351562 157.816406 C 162.273438 157.890625 162.21875 157.976562 162.183594 158.078125 C 162.144531 158.175781 162.128906 158.277344 162.136719 158.382812 C 162.144531 158.488281 162.175781 158.585938 162.226562 158.675781 C 162.433594 159.109375 162.796875 159.203125 163.242188 158.992188 Z M 174.632812 164.609375 C 174.402344 164.882812 174.082031 165.238281 174.414062 165.746094 C 174.652344 166.121094 174.988281 166.0625 175.332031 165.910156 C 175.796875 165.667969 175.800781 165.285156 175.597656 164.875 C 175.390625 164.460938 175.160156 164.324219 174.632812 164.609375 Z M 167.261719 160.390625 C 167.074219 160.492188 166.945312 160.644531 166.878906 160.847656 C 166.8125 161.050781 166.820312 161.246094 166.910156 161.441406 C 167.097656 161.855469 167.386719 162.15625 167.855469 161.96875 C 168.417969 161.75 168.160156 161.296875 168.015625 160.933594 C 167.871094 160.570312 167.746094 160.261719 167.261719 160.390625 Z M 167.824219 163.535156 C 167.976562 163.875 168.21875 164.195312 168.613281 164.023438 C 169.121094 163.800781 168.992188 163.371094 168.820312 162.980469 C 168.644531 162.589844 168.402344 162.382812 168.003906 162.617188 C 167.605469 162.851562 167.679688 163.183594 167.824219 163.535156 Z M 171.253906 164.535156 C 171.394531 164.855469 171.574219 165.261719 172.03125 165 C 172.488281 164.742188 172.253906 164.382812 172.105469 164.0625 C 171.957031 163.738281 171.804688 163.492188 171.449219 163.632812 C 170.976562 163.820312 171.152344 164.199219 171.253906 164.535156 Z M 191.699219 162.253906 C 191.984375 162.054688 192.074219 161.808594 191.875 161.503906 C 191.773438 161.351562 191.628906 161.246094 191.449219 161.199219 C 191.269531 161.148438 191.09375 161.164062 190.925781 161.246094 C 190.777344 161.289062 190.671875 161.382812 190.609375 161.527344 C 190.546875 161.671875 190.554688 161.8125 190.628906 161.949219 C 190.871094 162.441406 191.269531 162.441406 191.699219 162.253906 Z M 163.738281 160.035156 C 163.449219 160.234375 163.085938 160.40625 163.214844 160.839844 C 163.328125 161.210938 163.644531 161.222656 163.933594 161.09375 C 164.226562 160.964844 164.601562 160.761719 164.441406 160.296875 C 164.355469 159.992188 164.089844 159.914062 163.738281 160.035156 Z M 164.542969 162.242188 C 164.351562 162.378906 164.058594 162.527344 164.152344 162.894531 C 164.246094 163.265625 164.546875 163.292969 164.839844 163.160156 C 165.136719 163.03125 165.375 162.832031 165.289062 162.488281 C 165.207031 162.144531 164.929688 162.117188 164.554688 162.242188 Z M 168.273438 172.707031 C 168.363281 172.917969 168.535156 173.160156 168.910156 173.035156 C 169.28125 172.910156 169.386719 172.542969 169.222656 172.164062 C 169.183594 172.011719 169.089844 171.90625 168.945312 171.847656 C 168.800781 171.785156 168.660156 171.792969 168.523438 171.871094 C 168.226562 172.03125 168.125 172.300781 168.285156 172.707031 Z M 187.808594 162.050781 C 187.726562 162.183594 187.691406 162.328125 187.703125 162.484375 C 187.71875 162.640625 187.777344 162.777344 187.882812 162.894531 C 187.960938 163.027344 188.074219 163.109375 188.222656 163.144531 C 188.371094 163.175781 188.511719 163.148438 188.636719 163.058594 C 189.015625 162.796875 188.878906 162.453125 188.679688 162.160156 C 188.480469 161.863281 188.242188 161.828125 187.820312 162.050781 Z M 165.0625 165.160156 C 165.125 165.304688 165.230469 165.402344 165.382812 165.449219 C 165.535156 165.496094 165.675781 165.480469 165.8125 165.394531 C 166.1875 165.226562 166.375 164.941406 166.207031 164.535156 C 166.183594 164.460938 166.148438 164.398438 166.09375 164.339844 C 166.042969 164.285156 165.980469 164.242188 165.910156 164.214844 C 165.835938 164.191406 165.761719 164.179688 165.6875 164.1875 C 165.609375 164.195312 165.539062 164.21875 165.472656 164.261719 C 165.296875 164.335938 165.171875 164.457031 165.09375 164.628906 C 165.011719 164.800781 165.003906 164.976562 165.0625 165.160156 Z M 166.1875 167.691406 C 166.359375 167.945312 166.59375 167.878906 166.800781 167.792969 C 167.109375 167.65625 167.285156 167.4375 167.101562 167.089844 C 166.980469 166.816406 166.71875 166.84375 166.476562 166.972656 C 166.34375 167.039062 166.253906 167.140625 166.203125 167.28125 C 166.152344 167.421875 166.15625 167.558594 166.214844 167.695312 Z M 169.214844 165.304688 C 168.890625 165.449219 168.785156 165.695312 168.921875 166.007812 C 169.058594 166.316406 169.300781 166.457031 169.625 166.300781 C 169.949219 166.144531 169.902344 165.929688 169.839844 165.703125 C 169.777344 165.472656 169.582031 165.226562 169.246094 165.308594 Z M 173.320312 169.527344 C 173.425781 169.761719 173.597656 170.042969 173.957031 169.859375 C 174.207031 169.75 174.128906 169.457031 174.035156 169.253906 C 173.9375 169.050781 173.859375 168.671875 173.449219 168.851562 C 173.222656 169.003906 173.273438 169.265625 173.351562 169.53125 Z M 171.25 170.171875 C 170.96875 170.296875 170.964844 170.535156 171.023438 170.746094 C 171.085938 170.960938 171.230469 171.3125 171.601562 171.226562 C 171.976562 171.140625 171.875 170.871094 171.8125 170.671875 C 171.75 170.46875 171.652344 170.125 171.277344 170.175781 Z M 172.914062 166.476562 C 172.796875 166.324219 172.625 166.25 172.46875 166.335938 C 172.359375 166.390625 172.292969 166.480469 172.265625 166.597656 C 172.242188 166.714844 172.265625 166.824219 172.339844 166.917969 C 172.378906 167 172.441406 167.054688 172.527344 167.082031 C 172.617188 167.109375 172.699219 167.101562 172.777344 167.054688 C 172.886719 167.003906 172.960938 166.921875 172.992188 166.804688 C 173.027344 166.691406 173.011719 166.582031 172.945312 166.480469 Z M 189.808594 159.992188 C 189.9375 160.078125 190.074219 160.113281 190.230469 160.09375 C 190.382812 160.078125 190.511719 160.011719 190.613281 159.894531 C 190.691406 159.839844 190.726562 159.765625 190.71875 159.667969 C 190.710938 159.574219 190.664062 159.503906 190.578125 159.460938 C 190.339844 159.324219 190.113281 159.347656 189.90625 159.527344 C 189.824219 159.578125 189.777344 159.648438 189.761719 159.746094 C 189.75 159.839844 189.773438 159.921875 189.839844 159.996094 Z M 167.40625 169.832031 C 167.511719 169.839844 167.644531 169.902344 167.726562 169.859375 C 167.816406 169.824219 167.875 169.761719 167.902344 169.671875 C 167.933594 169.578125 167.921875 169.496094 167.867188 169.414062 C 167.839844 169.351562 167.636719 169.347656 167.550781 169.382812 C 167.472656 169.425781 167.417969 169.488281 167.394531 169.574219 C 167.371094 169.660156 167.382812 169.738281 167.425781 169.816406 Z M 167.40625 169.832031 " fill-opacity="1" fill-rule="nonzero"/></g></g></g><g clip-path="url(#6342860d90)"><g clip-path="url(#dd0be79275)"><g clip-path="url(#0a706b410c)"><path fill="#e4e3e2" d="M 141.035156 55.25 C 143.484375 59.816406 145.753906 64.46875 147.996094 69.144531 C 152.839844 79.246094 157.839844 89.277344 162.320312 99.554688 C 163.300781 101.761719 164.253906 103.976562 165.183594 106.199219 C 165.398438 106.699219 165.566406 107.210938 165.695312 107.738281 C 165.785156 108.121094 165.972656 108.636719 165.398438 108.808594 C 164.824219 108.984375 164.652344 108.503906 164.445312 108.15625 C 164.179688 107.679688 163.941406 107.195312 163.726562 106.691406 C 157.351562 92.511719 150.976562 78.332031 144.601562 64.148438 C 143.304688 61.230469 142.007812 58.3125 140.710938 55.394531 Z M 141.035156 55.25 " fill-opacity="1" fill-rule="nonzero"/></g></g></g><g clip-path="url(#f2d45af8b3)"><g clip-path="url(#a9eed9405b)"><g clip-path="url(#3c1a5a2d5a)"><path fill="#e4e3e2" d="M 138.957031 58.886719 C 140.949219 62.082031 142.359375 65.175781 144.066406 68.308594 C 143.933594 68.34375 143.804688 68.351562 143.667969 68.335938 C 143.535156 68.316406 143.410156 68.273438 143.292969 68.207031 C 143.179688 68.136719 143.082031 68.050781 143 67.941406 C 142.917969 67.835938 142.863281 67.714844 142.828125 67.585938 C 141.582031 64.800781 140.347656 62.007812 138.957031 58.886719 Z M 138.957031 58.886719 " fill-opacity="1" fill-rule="nonzero"/></g></g></g><g clip-path="url(#50e7721fa8)"><g clip-path="url(#86383c6f87)"><g clip-path="url(#6ed0270811)"><path fill="#e4e3e2" d="M 137.898438 62.828125 C 139.3125 64.328125 140.371094 66.046875 141.074219 67.980469 C 141.195312 68.253906 141.296875 68.609375 140.953125 68.761719 C 140.609375 68.914062 140.449219 68.550781 140.328125 68.292969 C 139.511719 66.472656 138.707031 64.648438 137.898438 62.828125 Z M 137.898438 62.828125 " fill-opacity="1" fill-rule="nonzero"/></g></g></g><g clip-path="url(#4e19926da8)"><g clip-path="url(#405e83d65e)"><g clip-path="url(#c57d38550a)"><path fill="#e4e3e2" d="M 136.855469 66.367188 C 137.125 66.496094 137.335938 66.683594 137.492188 66.9375 C 137.652344 67.1875 137.726562 67.460938 137.722656 67.757812 C 137.4375 67.292969 137.136719 66.8125 136.855469 66.367188 Z M 136.855469 66.367188 " fill-opacity="1" fill-rule="nonzero"/></g></g></g><g clip-path="url(#dc0cbb585b)"><g clip-path="url(#bae7da5b51)"><g clip-path="url(#d05b101584)"><path fill="#e4e3e2" d="M 135.402344 67.972656 L 135.210938 67.539062 C 135.628906 67.609375 135.492188 68.035156 135.402344 67.972656 Z M 135.402344 67.972656 " fill-opacity="1" fill-rule="nonzero"/></g></g></g></svg>