<svg xmlns="http://www.w3.org/2000/svg" xmlns:xlink="http://www.w3.org/1999/xlink" width="500" zoomAndPan="magnify" viewBox="0 0 375 374.999991" height="500" preserveAspectRatio="xMidYMid meet" version="1.0"><defs><g/><clipPath id="d963d3850a"><path d="M 0 205.449219 L 375 205.449219 L 375 254 L 0 254 Z M 0 205.449219 " clip-rule="nonzero"/></clipPath><clipPath id="1a8fe31ff9"><path d="M 9 158 L 182 158 L 182 332 L 9 332 Z M 9 158 " clip-rule="nonzero"/></clipPath><clipPath id="5089897470"><path d="M 194.074219 304.589844 L 154.300781 344.367188 L -10.101562 179.964844 L 29.671875 140.1875 Z M 194.074219 304.589844 " clip-rule="nonzero"/></clipPath><clipPath id="df16358ff9"><path d="M 194.074219 304.589844 L 154.300781 344.367188 L -10.101562 179.964844 L 29.671875 140.1875 Z M 194.074219 304.589844 " clip-rule="nonzero"/></clipPath><clipPath id="c80a1e5e7e"><path d="M 36 177 L 63 177 L 63 203 L 36 203 Z M 36 177 " clip-rule="nonzero"/></clipPath><clipPath id="fee7e26ed2"><path d="M 194.074219 304.589844 L 154.300781 344.367188 L -10.101562 179.964844 L 29.671875 140.1875 Z M 194.074219 304.589844 " clip-rule="nonzero"/></clipPath><clipPath id="ffc3d4313c"><path d="M 194.074219 304.589844 L 154.300781 344.367188 L -10.101562 179.964844 L 29.671875 140.1875 Z M 194.074219 304.589844 " clip-rule="nonzero"/></clipPath><clipPath id="4e9e4e0f44"><path d="M 36 180 L 42 180 L 42 185 L 36 185 Z M 36 180 " clip-rule="nonzero"/></clipPath><clipPath id="b8b65de7eb"><path d="M 194.074219 304.589844 L 154.300781 344.367188 L -10.101562 179.964844 L 29.671875 140.1875 Z M 194.074219 304.589844 " clip-rule="nonzero"/></clipPath><clipPath id="ffaa889581"><path d="M 194.074219 304.589844 L 154.300781 344.367188 L -10.101562 179.964844 L 29.671875 140.1875 Z M 194.074219 304.589844 " clip-rule="nonzero"/></clipPath><clipPath id="c7f7f98690"><path d="M 36 182 L 40 182 L 40 186 L 36 186 Z M 36 182 " clip-rule="nonzero"/></clipPath><clipPath id="ef15722817"><path d="M 194.074219 304.589844 L 154.300781 344.367188 L -10.101562 179.964844 L 29.671875 140.1875 Z M 194.074219 304.589844 " clip-rule="nonzero"/></clipPath><clipPath id="ac49eaba3a"><path d="M 194.074219 304.589844 L 154.300781 344.367188 L -10.101562 179.964844 L 29.671875 140.1875 Z M 194.074219 304.589844 " clip-rule="nonzero"/></clipPath><clipPath id="48ad808a91"><path d="M 36 184 L 38 184 L 38 186 L 36 186 Z M 36 184 " clip-rule="nonzero"/></clipPath><clipPath id="43d41bef55"><path d="M 194.074219 304.589844 L 154.300781 344.367188 L -10.101562 179.964844 L 29.671875 140.1875 Z M 194.074219 304.589844 " clip-rule="nonzero"/></clipPath><clipPath id="be3d93b9f4"><path d="M 194.074219 304.589844 L 154.300781 344.367188 L -10.101562 179.964844 L 29.671875 140.1875 Z M 194.074219 304.589844 " clip-rule="nonzero"/></clipPath><clipPath id="912c401888"><path d="M 36 185 L 37 185 L 37 186 L 36 186 Z M 36 185 " clip-rule="nonzero"/></clipPath><clipPath id="1c9a5d4fc8"><path d="M 194.074219 304.589844 L 154.300781 344.367188 L -10.101562 179.964844 L 29.671875 140.1875 Z M 194.074219 304.589844 " clip-rule="nonzero"/></clipPath><clipPath id="85319c86c4"><path d="M 194.074219 304.589844 L 154.300781 344.367188 L -10.101562 179.964844 L 29.671875 140.1875 Z M 194.074219 304.589844 " clip-rule="nonzero"/></clipPath></defs><g fill="#3b3937" fill-opacity="1"><g transform="translate(170.305995, 301.010718)"><g><path d="M 89.78125 2.390625 C 72.75 2.390625 58.582031 -1.269531 47.28125 -8.59375 C 35.976562 -15.914062 27.5 -26.101562 21.84375 -39.15625 C 16.195312 -52.21875 13.375 -67.503906 13.375 -85.015625 C 13.375 -102.367188 16.238281 -117.648438 21.96875 -130.859375 C 27.695312 -144.078125 36.375 -154.382812 48 -161.78125 C 59.625 -169.1875 74.347656 -172.890625 92.171875 -172.890625 C 108.097656 -172.890625 120.316406 -170.179688 128.828125 -164.765625 C 137.347656 -159.359375 141.609375 -152.832031 141.609375 -145.1875 C 141.609375 -139.769531 139.5 -135.550781 135.28125 -132.53125 C 131.0625 -129.507812 125.445312 -128 118.4375 -128 C 118.4375 -143.125 116.046875 -153.945312 111.265625 -160.46875 C 106.492188 -167 98.859375 -170.265625 88.359375 -170.265625 C 72.429688 -170.265625 61.003906 -163.257812 54.078125 -149.25 C 47.160156 -135.238281 43.703125 -114.066406 43.703125 -85.734375 C 43.703125 -56.910156 47.5625 -35.414062 55.28125 -21.25 C 63 -7.082031 75.613281 0 93.125 0 C 104.113281 0 113.03125 -2.90625 119.875 -8.71875 C 126.71875 -14.53125 131.734375 -23.644531 134.921875 -36.0625 C 138.898438 -34.46875 140.890625 -31.363281 140.890625 -26.75 C 140.890625 -22.601562 139.097656 -18.257812 135.515625 -13.71875 C 131.929688 -9.1875 126.359375 -5.367188 118.796875 -2.265625 C 111.234375 0.835938 101.5625 2.390625 89.78125 2.390625 Z M 89.78125 2.390625 "/></g></g></g><g fill="#3b3937" fill-opacity="1"><g transform="translate(66.675812, 226.892112)"><g><path d="M 61.375 2.390625 C 44.5 2.390625 31.757812 -0.867188 23.15625 -7.390625 C 14.5625 -13.921875 10.265625 -21.726562 10.265625 -30.8125 C 10.265625 -36.851562 12.09375 -41.382812 15.75 -44.40625 C 19.414062 -47.4375 24.195312 -48.953125 30.09375 -48.953125 C 30.25 -31.597656 33.191406 -19.097656 38.921875 -11.453125 C 44.648438 -3.816406 53.007812 0 64 0 C 74.03125 0 82.1875 -2.863281 88.46875 -8.59375 C 94.757812 -14.320312 97.90625 -22.757812 97.90625 -33.90625 C 97.90625 -41.226562 96.472656 -47.15625 93.609375 -51.6875 C 90.742188 -56.226562 86.363281 -60.289062 80.46875 -63.875 C 74.582031 -67.457031 66.941406 -71.398438 57.546875 -75.703125 C 49.742188 -79.203125 42.5 -83.140625 35.8125 -87.515625 C 29.132812 -91.898438 23.765625 -97.273438 19.703125 -103.640625 C 15.640625 -110.003906 13.609375 -118.039062 13.609375 -127.75 C 13.609375 -142.238281 18.382812 -153.382812 27.9375 -161.1875 C 37.488281 -168.988281 50.460938 -172.890625 66.859375 -172.890625 C 81.191406 -172.890625 92.613281 -170.179688 101.125 -164.765625 C 109.644531 -159.359375 113.90625 -152.910156 113.90625 -145.421875 C 113.90625 -140.492188 111.953125 -136.554688 108.046875 -133.609375 C 104.148438 -130.660156 98.859375 -129.1875 92.171875 -129.1875 C 92.171875 -142.875 90.0625 -153.140625 85.84375 -159.984375 C 81.625 -166.835938 74.582031 -170.265625 64.71875 -170.265625 C 56.28125 -170.265625 49.273438 -167.753906 43.703125 -162.734375 C 38.128906 -157.722656 35.34375 -149.804688 35.34375 -138.984375 C 35.34375 -131.660156 36.734375 -125.609375 39.515625 -120.828125 C 42.304688 -116.054688 46.6875 -111.835938 52.65625 -108.171875 C 58.625 -104.515625 66.222656 -100.613281 75.453125 -96.46875 C 84.367188 -92.65625 92.207031 -88.640625 98.96875 -84.421875 C 105.738281 -80.203125 111.035156 -75.066406 114.859375 -69.015625 C 118.679688 -62.960938 120.59375 -55.320312 120.59375 -46.09375 C 120.59375 -31.28125 115.457031 -19.492188 105.1875 -10.734375 C 94.914062 -1.984375 80.3125 2.390625 61.375 2.390625 Z M 61.375 2.390625 "/></g></g></g><g clip-path="url(#d963d3850a)"><path fill="#f4f4f4" d="M -17.402344 205.449219 L 399.367188 205.449219 L 399.367188 253.9375 L -17.402344 253.9375 Z M -17.402344 205.449219 " fill-opacity="1" fill-rule="nonzero"/></g><g clip-path="url(#1a8fe31ff9)"><g clip-path="url(#5089897470)"><g clip-path="url(#df16358ff9)"><path fill="#3b3937" d="M 20.203125 162.753906 C 21.003906 163.554688 21.808594 164.359375 22.609375 165.160156 C 23.550781 166.101562 23.542969 166.132812 24.648438 165.472656 C 25.703125 164.800781 26.851562 164.53125 28.097656 164.667969 C 29.003906 164.757812 29.773438 165.128906 30.402344 165.789062 C 35.695312 171.152344 41.003906 176.507812 46.328125 181.851562 C 56.027344 191.617188 65.730469 201.375 75.429688 211.132812 C 78.585938 214.289062 81.746094 217.449219 84.890625 220.617188 C 86.585938 222.339844 88.207031 224.132812 89.929688 225.824219 C 90.339844 226.179688 90.613281 226.625 90.75 227.152344 C 90.886719 227.679688 90.863281 228.195312 90.679688 228.707031 C 90.632812 228.925781 90.570312 229.136719 90.492188 229.339844 C 90.246094 229.832031 90.417969 230.132812 90.824219 230.449219 C 96.535156 234.917969 102.546875 238.941406 108.855469 242.519531 C 119.703125 248.660156 130.675781 254.578125 141.769531 260.277344 C 147.226562 263.042969 152.453125 266.195312 157.445312 269.738281 C 159.878906 271.492188 162.230469 273.347656 164.488281 275.328125 C 166.984375 277.484375 169.296875 279.824219 171.429688 282.339844 C 177.3125 289.375 180.878906 297.351562 181.125 306.617188 C 181.25 311.324219 180.265625 315.796875 177.550781 319.726562 C 175.324219 322.941406 172.445312 325.484375 169.109375 327.570312 C 161.589844 332.253906 153.671875 332.429688 145.496094 329.691406 C 141.214844 328.261719 137.40625 325.964844 133.933594 323.097656 C 132.378906 321.816406 130.855469 320.503906 129.394531 319.125 C 123.472656 313.542969 118.570312 307.144531 114.320312 300.222656 C 110.828125 294.542969 108.019531 288.503906 105.011719 282.566406 C 100.972656 274.601562 97.433594 266.414062 93.320312 258.480469 C 90.152344 252.3125 86.433594 246.5 82.15625 241.039062 C 82.046875 240.894531 81.925781 240.753906 81.804688 240.621094 C 81.144531 239.886719 81.128906 239.859375 80.265625 240.285156 C 79.402344 240.710938 78.578125 240.671875 77.835938 239.996094 C 77.457031 239.652344 77.066406 239.316406 76.707031 238.953125 C 72.402344 234.613281 68.0625 230.308594 63.820312 225.910156 C 58.691406 220.578125 53.417969 215.398438 48.289062 210.078125 C 42.648438 204.226562 36.859375 198.523438 31.210938 192.679688 C 26.6875 187.992188 22.097656 183.371094 17.515625 178.742188 C 16.984375 178.246094 16.722656 177.636719 16.726562 176.914062 C 16.675781 175.648438 16.921875 174.445312 17.464844 173.304688 C 17.761719 172.707031 17.632812 172.304688 17.179688 171.859375 C 15.527344 170.253906 13.902344 168.613281 12.269531 166.984375 C 11.5625 166.289062 10.945312 165.523438 10.417969 164.683594 C 9.351562 162.976562 9.484375 161.371094 10.761719 159.824219 C 12.304688 157.953125 14.152344 157.683594 16.175781 159.042969 C 16.550781 159.273438 16.902344 159.535156 17.234375 159.824219 C 18.230469 160.792969 19.199219 161.792969 20.183594 162.773438 Z M 123.496094 255.351562 C 123.730469 255.679688 124.042969 255.902344 124.433594 256.015625 C 124.703125 256.320312 125.003906 256.582031 125.34375 256.804688 C 126.867188 257.8125 128.382812 258.835938 129.902344 259.855469 C 136.667969 264.40625 143.683594 268.582031 150.277344 273.390625 C 153.839844 275.964844 157.246094 278.726562 160.496094 281.679688 C 163.851562 284.753906 166.902344 288.105469 169.652344 291.726562 C 172.480469 295.429688 174.65625 299.46875 175.761719 304.011719 C 176.742188 308.019531 176.976562 312.039062 175.742188 316.050781 C 174.574219 319.90625 170.691406 322.71875 166.65625 322.742188 C 163.105469 322.773438 159.617188 322.332031 156.183594 321.414062 C 152.753906 320.496094 149.503906 319.136719 146.441406 317.335938 C 139.457031 313.28125 133.265625 308.253906 127.867188 302.246094 C 124.6875 298.65625 121.71875 294.894531 118.96875 290.964844 C 113.773438 283.664062 108.953125 276.113281 104.257812 268.476562 C 99.125 260.125 93.769531 251.917969 87.722656 244.183594 C 87.125 243.339844 86.453125 242.5625 85.699219 241.851562 C 85.652344 242.121094 85.824219 242.226562 85.921875 242.363281 C 87.074219 243.964844 88.230469 245.566406 89.300781 247.222656 C 92.960938 252.964844 96.449219 258.796875 100.113281 264.53125 C 104.726562 271.738281 108.839844 279.253906 113.238281 286.585938 C 117.164062 293.160156 121.382812 299.523438 126.351562 305.363281 C 130.242188 309.976562 134.628906 314.054688 139.519531 317.59375 C 144.621094 321.257812 150.234375 323.710938 156.453125 324.707031 C 159.210938 325.136719 161.984375 325.257812 164.765625 325.074219 C 167.035156 324.90625 169.1875 324.277344 171.328125 323.472656 C 172.832031 322.90625 173.886719 321.96875 174.863281 320.855469 C 176.066406 319.476562 177.199219 318.050781 177.566406 316.167969 C 178.445312 311.964844 178.46875 307.75 177.628906 303.535156 C 176.242188 296.863281 173 291.179688 168.382812 286.246094 C 166.511719 284.230469 164.53125 282.332031 162.441406 280.546875 C 158.566406 277.261719 154.527344 274.132812 150.132812 271.578125 C 142.074219 266.882812 134.078125 262.082031 126.246094 257.019531 C 125.667969 256.648438 125.132812 256.179688 124.429688 256.03125 C 124.183594 255.714844 123.871094 255.492188 123.488281 255.367188 C 123.414062 255.289062 123.335938 255.21875 123.246094 255.160156 C 123.1875 255.125 123.117188 254.96875 123.039062 255.132812 C 123.074219 255.191406 123.117188 255.238281 123.175781 255.269531 C 123.28125 255.304688 123.386719 255.332031 123.496094 255.351562 Z M 95.132812 251.476562 C 95.28125 252.097656 95.691406 252.582031 96.035156 253.09375 C 99.3125 257.941406 102.539062 262.820312 105.589844 267.816406 C 111.851562 278.097656 118.375 288.195312 125.871094 297.640625 C 127.789062 300.097656 129.867188 302.402344 132.109375 304.566406 C 134.882812 307.230469 137.820312 309.695312 140.925781 311.964844 C 144.796875 314.761719 148.796875 317.289062 153.308594 318.941406 C 157.71875 320.511719 162.261719 321.367188 166.9375 321.515625 C 167.980469 321.566406 168.980469 321.386719 169.941406 320.976562 C 170.898438 320.566406 171.71875 319.96875 172.402344 319.183594 C 173.507812 317.972656 174.25 316.566406 174.628906 314.96875 C 175.085938 313.117188 175.265625 311.234375 175.167969 309.328125 C 174.875 303.960938 173.023438 299.125 170.03125 294.691406 C 166.132812 288.917969 161.292969 283.992188 155.984375 279.519531 C 152.0625 276.273438 147.972656 273.265625 143.707031 270.488281 C 138.921875 267.3125 134.082031 264.230469 129.289062 261.066406 C 121.105469 255.671875 113.078125 250.050781 104.976562 244.535156 C 103.835938 243.761719 102.765625 242.859375 101.449219 242.347656 C 101.382812 242.265625 101.308594 242.191406 101.226562 242.125 C 101.175781 242.074219 101.105469 241.929688 101.011719 242.082031 C 101.046875 242.140625 101.09375 242.1875 101.15625 242.222656 C 101.25 242.269531 101.351562 242.308594 101.453125 242.34375 C 103.128906 243.878906 105.035156 245.113281 106.878906 246.429688 C 111.316406 249.605469 115.769531 252.71875 120.207031 255.886719 C 123.742188 258.414062 127.226562 261.023438 130.789062 263.515625 C 136.453125 267.480469 142.132812 271.425781 147.414062 275.878906 C 151.578125 279.351562 155.550781 283.027344 159.332031 286.910156 C 161.398438 289.046875 163.253906 291.347656 164.902344 293.820312 C 167.515625 297.773438 169.769531 301.902344 171.109375 306.476562 C 171.707031 308.519531 172.140625 310.589844 172.082031 312.734375 C 172.054688 313.808594 171.890625 314.847656 171.199219 315.726562 C 170.910156 316.054688 170.835938 316.425781 170.976562 316.84375 C 171.046875 317.054688 171.082031 317.269531 171.082031 317.488281 C 171.089844 318.242188 170.648438 318.59375 169.960938 318.289062 C 169.570312 318.109375 169.195312 318.140625 168.84375 318.390625 C 168.136719 318.800781 167.375 319.035156 166.558594 319.089844 C 163.960938 319.195312 161.460938 318.816406 159.117188 317.578125 C 155.667969 315.808594 152.320312 313.863281 149.070312 311.746094 C 142.921875 307.664062 137.308594 302.941406 132.230469 297.585938 C 129.074219 294.226562 126.101562 290.734375 123.105469 287.207031 C 119.175781 282.582031 115.328125 277.890625 111.605469 273.097656 C 106.863281 267.015625 102.253906 260.824219 97.628906 254.65625 C 96.820312 253.574219 96.101562 252.414062 95.101562 251.488281 C 95.066406 251.386719 95.027344 251.289062 94.980469 251.191406 C 94.945312 251.132812 94.894531 251.085938 94.839844 251.046875 C 94.691406 251.148438 94.847656 251.203125 94.890625 251.265625 C 94.96875 251.34375 95.050781 251.417969 95.140625 251.484375 Z M 84.546875 224.214844 C 84.695312 224.121094 84.78125 224.199219 84.863281 224.261719 C 85.152344 224.492188 85.4375 224.585938 85.71875 224.253906 C 86.003906 223.925781 85.835938 223.644531 85.609375 223.382812 C 85.382812 223.121094 85.160156 222.898438 84.925781 222.667969 C 76.539062 214.246094 68.144531 205.824219 59.75 197.402344 C 57.265625 194.917969 54.769531 192.449219 52.324219 189.925781 C 44.808594 182.175781 37.125 174.601562 29.542969 166.917969 C 28.765625 166.144531 27.886719 166.050781 26.925781 166.164062 C 26.273438 166.242188 26.226562 166.449219 26.601562 167.019531 C 27.308594 168.070312 28.328125 168.878906 29.003906 170.113281 L 28.292969 169.398438 C 27.515625 168.625 26.742188 167.847656 25.964844 167.070312 C 25.8125 166.921875 25.625 166.734375 25.394531 166.90625 C 25.109375 167.117188 25.28125 167.367188 25.425781 167.574219 C 25.742188 168.027344 26.1875 168.394531 26.421875 169.019531 C 25.738281 168.535156 25.375 167.828125 24.570312 167.484375 C 24.453125 168.222656 25.207031 168.449219 25.214844 169.078125 C 25.023438 168.917969 24.886719 168.800781 24.746094 168.683594 C 23.828125 167.960938 23.773438 167.917969 22.925781 168.757812 C 21.945312 169.738281 20.988281 170.75 20.105469 171.8125 C 19.3125 172.742188 18.738281 173.792969 18.382812 174.960938 C 18 176.285156 18.160156 177.382812 19.21875 178.449219 C 24.40625 183.664062 29.582031 188.886719 34.703125 194.160156 C 42.582031 202.269531 50.542969 210.296875 58.460938 218.363281 C 61 220.945312 63.546875 223.523438 66.09375 226.09375 C 66.40625 226.402344 66.753906 226.675781 67.074219 226.972656 C 67.148438 227.0625 67.246094 227.109375 67.363281 227.109375 C 67.476562 227.109375 67.574219 227.066406 67.652344 226.976562 C 67.808594 226.820312 67.976562 226.652344 67.886719 226.414062 C 67.800781 226.214844 67.6875 226.027344 67.542969 225.863281 C 67.140625 225.371094 66.71875 224.894531 66.304688 224.414062 C 66.5625 224.472656 66.789062 224.59375 66.980469 224.773438 C 68.84375 226.566406 70.890625 228.15625 72.679688 230.027344 C 73.011719 230.359375 73.390625 230.664062 73.679688 231.027344 C 73.746094 231.125 73.835938 231.183594 73.949219 231.203125 C 74.066406 231.222656 74.171875 231.199219 74.265625 231.132812 C 74.546875 230.9375 74.484375 230.691406 74.328125 230.460938 C 74.183594 230.253906 74.023438 230.054688 73.84375 229.871094 C 73.523438 229.550781 73.203125 229.230469 72.878906 228.90625 L 73.054688 228.734375 C 73.765625 229.222656 74.445312 229.753906 75.09375 230.324219 C 75.558594 230.789062 76.050781 231.230469 76.558594 231.648438 C 76.78125 231.839844 77.0625 232.234375 77.375 231.898438 C 77.648438 231.625 77.253906 231.390625 77.09375 231.171875 C 76.464844 230.394531 75.84375 229.613281 75.160156 228.875 C 75.320312 228.875 75.457031 228.921875 75.582031 229.023438 C 76.453125 229.800781 77.414062 230.476562 78.25 231.300781 C 78.570312 231.621094 78.933594 232.332031 79.464844 231.839844 C 80.035156 231.3125 79.257812 231 79 230.625 C 78.738281 230.253906 78.359375 230.066406 78.171875 229.546875 C 79.210938 229.984375 79.84375 230.773438 80.65625 231.320312 C 81.46875 231.863281 81.441406 231.878906 81.875 230.949219 C 82.269531 231.222656 82.664062 231.476562 83.039062 231.757812 C 83.347656 231.992188 83.632812 232.027344 83.914062 231.742188 C 84.714844 230.941406 85.53125 230.152344 86.28125 229.3125 C 86.703125 228.839844 86.441406 228.378906 85.773438 228.3125 C 85.707031 228.308594 85.636719 228.375 85.570312 228.375 C 85.527344 228.371094 85.503906 228.351562 85.496094 228.308594 C 85.488281 228.269531 85.507812 228.238281 85.546875 228.226562 C 85.882812 228.050781 85.386719 227.433594 86.085938 227.367188 C 86.554688 227.320312 86.578125 226.964844 86.242188 226.5625 C 85.644531 225.789062 84.925781 225.121094 84.546875 224.214844 Z M 155.589844 285.15625 C 152.742188 282.265625 149.433594 279.382812 146.058594 276.574219 C 143.410156 274.375 140.738281 272.214844 137.925781 270.230469 C 134.023438 267.457031 130.046875 264.785156 126.183594 261.949219 C 118.015625 255.953125 109.640625 250.261719 101.460938 244.277344 C 98.179688 241.886719 94.816406 239.617188 91.617188 237.109375 C 89.738281 235.652344 87.8125 234.253906 86.035156 232.675781 C 85.742188 232.414062 85.496094 232.316406 85.203125 232.648438 C 84.90625 232.980469 85.089844 233.238281 85.351562 233.476562 C 85.703125 233.792969 86.058594 234.109375 86.425781 234.417969 C 89.484375 237.027344 92.578125 239.601562 95.628906 242.222656 C 98.40625 244.605469 101.15625 247.019531 103.894531 249.433594 C 107.1875 252.339844 110.503906 255.214844 113.738281 258.183594 C 117.378906 261.523438 120.96875 264.914062 124.515625 268.351562 C 128.976562 272.695312 133.433594 277.035156 137.882812 281.371094 C 145.574219 288.847656 153.097656 296.488281 160.53125 304.214844 C 163.222656 307.007812 165.921875 309.792969 168.382812 312.792969 C 168.828125 313.332031 169.238281 313.890625 169.695312 314.414062 C 170.097656 314.871094 170.300781 314.8125 170.496094 314.214844 C 170.679688 313.535156 170.746094 312.847656 170.699219 312.148438 C 170.621094 309.324219 169.863281 306.65625 168.824219 304.066406 C 165.921875 296.855469 161.472656 290.714844 155.589844 285.15625 Z M 83.566406 234.507812 C 83.449219 234.832031 83.71875 234.96875 83.882812 235.136719 C 87.4375 238.785156 90.566406 242.777344 93.621094 246.859375 C 96.507812 250.722656 99.382812 254.597656 102.285156 258.457031 C 105.363281 262.542969 108.445312 266.625 111.554688 270.675781 C 113.582031 273.3125 115.644531 275.925781 117.746094 278.503906 C 120.0625 281.335938 122.449219 284.101562 124.785156 286.917969 C 127.472656 290.152344 130.210938 293.34375 133.117188 296.386719 C 135.617188 299.0625 138.261719 301.589844 141.042969 303.972656 C 143.367188 305.925781 145.855469 307.667969 148.324219 309.429688 C 151.953125 311.972656 155.75 314.238281 159.707031 316.226562 C 161.785156 317.269531 163.980469 317.730469 166.296875 317.609375 C 166.625 317.597656 166.949219 317.546875 167.265625 317.460938 C 167.625 317.371094 167.746094 317.132812 167.421875 316.835938 C 167.097656 316.539062 166.832031 316.289062 166.515625 316.035156 C 164.742188 314.621094 163.078125 313.078125 161.441406 311.511719 C 158.246094 308.4375 155.308594 305.109375 152.164062 302.007812 C 147.816406 297.714844 143.359375 293.535156 138.96875 289.285156 C 132.472656 283.003906 126.042969 276.652344 119.761719 270.152344 C 117.675781 267.996094 115.589844 265.816406 113.445312 263.738281 C 109.011719 259.4375 104.632812 255.070312 100.171875 250.789062 C 94.761719 245.59375 89.5 240.242188 84.257812 234.875 C 84.089844 234.683594 83.9375 234.355469 83.566406 234.503906 Z M 97.777344 263.792969 C 97.734375 264.433594 98.027344 264.792969 98.207031 265.179688 C 101.039062 271.363281 104.035156 277.472656 107.0625 283.5625 C 109.445312 288.339844 111.773438 293.144531 114.484375 297.75 C 117.84375 303.519531 121.75 308.894531 126.199219 313.871094 C 129.359375 317.402344 132.835938 320.582031 136.632812 323.414062 C 140.960938 326.605469 145.757812 328.816406 151.101562 329.648438 C 156.832031 330.542969 162.332031 329.933594 167.398438 326.875 C 167.691406 326.699219 168.074219 326.613281 168.179688 326.179688 C 167.832031 326.011719 167.519531 326.167969 167.210938 326.214844 C 166.308594 326.367188 165.402344 326.476562 164.488281 326.535156 C 158.4375 326.871094 152.617188 325.851562 147.03125 323.484375 C 141.246094 321.058594 136.332031 317.328125 131.777344 313.109375 C 126.164062 307.910156 121.449219 301.949219 117.195312 295.621094 C 113.902344 290.734375 110.980469 285.621094 107.984375 280.554688 C 104.949219 275.425781 102.035156 270.226562 98.832031 265.199219 C 98.566406 264.664062 98.214844 264.195312 97.773438 263.792969 Z M 179.570312 305.964844 C 179.699219 305.507812 179.714844 305.042969 179.621094 304.574219 C 178.878906 296.632812 175.71875 289.71875 170.699219 283.605469 C 167.195312 279.34375 163.113281 275.683594 158.742188 272.347656 C 154.261719 268.976562 149.5625 265.957031 144.636719 263.28125 C 134.746094 257.828125 124.554688 252.921875 114.789062 247.242188 C 114.558594 247.054688 114.296875 246.964844 114 246.976562 C 114.03125 247.210938 114.210938 247.28125 114.359375 247.378906 L 120.363281 251.425781 C 128.371094 256.8125 136.464844 262.074219 144.832031 266.890625 C 151.53125 270.742188 158.117188 274.734375 163.902344 279.914062 C 166.90625 282.601562 169.761719 285.421875 172.195312 288.632812 C 174.046875 291.035156 175.570312 293.628906 176.761719 296.417969 C 177.953125 299.203125 178.777344 302.097656 179.234375 305.09375 C 179.234375 305.425781 179.347656 305.71875 179.570312 305.964844 Z M 95.34375 244.167969 C 96.3125 245.300781 97.238281 246.132812 98.132812 246.996094 C 102.417969 251.144531 106.726562 255.273438 110.988281 259.445312 C 114.886719 263.257812 118.675781 267.175781 122.46875 271.09375 C 130.363281 279.242188 138.484375 287.160156 146.753906 294.933594 C 149.847656 297.835938 152.8125 300.878906 155.796875 303.898438 C 159.476562 307.617188 162.976562 311.492188 166.894531 314.996094 C 167.4375 315.480469 168.011719 315.9375 168.570312 316.40625 C 168.714844 316.523438 168.878906 316.636719 169.0625 316.515625 C 169.335938 316.339844 169.167969 316.117188 169.085938 315.9375 C 168.980469 315.746094 168.863281 315.566406 168.730469 315.394531 C 167.941406 314.296875 167.054688 313.273438 166.179688 312.238281 C 164.480469 310.222656 162.578125 308.394531 160.777344 306.476562 C 155.660156 301.039062 150.390625 295.746094 145.105469 290.480469 C 140.527344 285.902344 135.898438 281.367188 131.214844 276.894531 C 127.007812 272.875 122.878906 268.773438 118.660156 264.765625 C 114.394531 260.703125 110.042969 256.738281 105.605469 252.863281 C 102.765625 250.386719 99.949219 247.890625 97.125 245.394531 C 96.601562 244.878906 96.007812 244.46875 95.34375 244.167969 Z M 16.917969 167.808594 L 17.03125 167.695312 C 17.441406 167.996094 17.84375 168.304688 18.253906 168.597656 C 18.664062 168.894531 18.945312 169.375 19.566406 169.523438 C 19.421875 168.847656 18.832031 168.585938 18.691406 167.964844 C 19.203125 168.191406 19.6875 168.46875 20.140625 168.800781 C 20.1875 168.832031 20.242188 168.839844 20.296875 168.820312 C 20.351562 168.800781 20.390625 168.761719 20.40625 168.707031 C 20.40625 168.402344 19.933594 168.285156 19.976562 167.890625 C 20.148438 167.960938 20.246094 167.996094 20.347656 168.039062 C 21.140625 168.351562 21.574219 168.195312 22.058594 167.441406 C 22.4375 166.851562 21.914062 166.5625 21.617188 166.25 C 20.144531 164.695312 18.679688 163.09375 17.09375 161.644531 C 16.4375 161 15.707031 160.453125 14.910156 160 C 14.679688 159.859375 14.433594 159.769531 14.167969 159.722656 C 13.90625 159.675781 13.640625 159.679688 13.378906 159.730469 C 13.113281 159.78125 12.871094 159.878906 12.640625 160.019531 C 12.414062 160.160156 12.21875 160.335938 12.058594 160.550781 C 11.039062 161.761719 10.964844 162.804688 11.84375 164.140625 C 11.984375 164.351562 12.148438 164.550781 12.3125 164.75 C 13.957031 166.765625 15.929688 168.464844 17.753906 170.308594 C 17.941406 170.484375 18.140625 170.648438 18.347656 170.800781 C 18.492188 170.914062 18.660156 171.003906 18.832031 170.867188 C 19.007812 170.730469 19.011719 170.472656 18.894531 170.277344 C 18.777344 170.101562 18.644531 169.933594 18.503906 169.773438 C 17.964844 169.113281 17.441406 168.460938 16.917969 167.808594 Z M 70.847656 230.226562 C 71.183594 229.9375 71.054688 229.660156 70.816406 229.402344 C 70.640625 229.226562 70.453125 229.007812 70.191406 229.226562 C 70.0625 229.359375 70 229.519531 70 229.707031 C 70 229.894531 70.066406 230.054688 70.199219 230.1875 C 70.28125 230.289062 70.382812 230.34375 70.515625 230.351562 C 70.644531 230.359375 70.753906 230.320312 70.847656 230.226562 Z M 81.046875 234.082031 C 81.125 234.179688 81.226562 234.226562 81.347656 234.230469 C 81.472656 234.234375 81.574219 234.1875 81.65625 234.09375 C 81.957031 233.792969 81.867188 233.515625 81.59375 233.265625 C 81.367188 233.039062 81.15625 233.027344 80.941406 233.277344 C 80.726562 233.527344 80.753906 233.789062 81.046875 234.082031 Z M 68.160156 227.058594 C 68.027344 227.1875 67.957031 227.34375 67.941406 227.527344 C 67.929688 227.710938 67.976562 227.875 68.085938 228.023438 C 68.273438 228.214844 68.460938 228.175781 68.640625 228.011719 C 68.917969 227.757812 69 227.480469 68.707031 227.1875 C 68.5625 227.015625 68.398438 226.859375 68.167969 227.046875 Z M 82.503906 232.023438 C 82.316406 231.878906 82.121094 231.59375 81.878906 231.890625 C 81.675781 232.132812 81.835938 232.378906 82.03125 232.554688 C 82.226562 232.730469 82.496094 233.058594 82.757812 232.765625 C 83.023438 232.46875 82.6875 232.238281 82.515625 232.015625 Z M 86.136719 225.261719 C 86.332031 225.457031 86.558594 225.601562 86.847656 225.332031 C 87.070312 225.109375 87.039062 224.890625 86.835938 224.679688 C 86.582031 224.425781 86.335938 224.441406 86.085938 224.671875 C 85.875 224.839844 85.945312 225.03125 86.132812 225.238281 Z M 68.988281 228.902344 C 69.191406 229.148438 69.355469 229.140625 69.511719 229.015625 C 69.792969 228.792969 69.960938 228.527344 69.648438 228.199219 C 69.519531 228.070312 69.347656 227.933594 69.1875 228.101562 C 68.960938 228.324219 68.8125 228.613281 68.988281 228.882812 Z M 72.070312 231.40625 C 72.277344 231.167969 72.179688 230.949219 71.976562 230.761719 C 71.769531 230.574219 71.601562 230.570312 71.421875 230.765625 C 71.320312 230.851562 71.269531 230.964844 71.269531 231.097656 C 71.269531 231.230469 71.324219 231.339844 71.425781 231.425781 C 71.636719 231.625 71.863281 231.601562 72.066406 231.386719 Z M 79.734375 232.097656 C 79.660156 232.300781 79.558594 232.570312 79.855469 232.789062 C 80.074219 232.945312 80.25 232.839844 80.410156 232.679688 C 80.621094 232.445312 80.539062 232.226562 80.335938 232.035156 C 80.128906 231.847656 79.96875 231.820312 79.734375 232.097656 Z M 74.644531 231.304688 C 74.5625 231.402344 74.523438 231.519531 74.527344 231.648438 C 74.535156 231.777344 74.585938 231.886719 74.675781 231.976562 C 74.871094 232.171875 75.101562 232.277344 75.324219 232.070312 C 75.597656 231.824219 75.351562 231.625 75.191406 231.449219 C 75.03125 231.273438 74.890625 231.128906 74.644531 231.304688 Z M 75.652344 232.964844 C 75.808594 233.121094 76.019531 233.25 76.203125 233.070312 C 76.441406 232.832031 76.273438 232.617188 76.089844 232.433594 C 75.90625 232.25 75.726562 232.1875 75.550781 232.40625 C 75.378906 232.625 75.492188 232.796875 75.652344 232.964844 Z M 77.804688 232.789062 C 77.957031 232.9375 78.144531 233.128906 78.347656 232.882812 C 78.546875 232.636719 78.339844 232.484375 78.183594 232.335938 C 78.027344 232.183594 77.890625 232.078125 77.71875 232.234375 C 77.492188 232.441406 77.675781 232.617188 77.804688 232.789062 Z M 88.863281 227.066406 C 88.980469 226.894531 88.976562 226.734375 88.796875 226.605469 C 88.703125 226.539062 88.601562 226.511719 88.488281 226.523438 C 88.378906 226.535156 88.28125 226.582031 88.203125 226.664062 C 88.128906 226.722656 88.089844 226.796875 88.085938 226.890625 C 88.082031 226.988281 88.117188 227.066406 88.191406 227.128906 C 88.433594 227.351562 88.660156 227.265625 88.863281 227.066406 Z M 72.578125 231.871094 C 72.457031 232.042969 72.289062 232.21875 72.457031 232.4375 C 72.601562 232.621094 72.78125 232.558594 72.917969 232.425781 C 73.054688 232.289062 73.222656 232.089844 73.03125 231.863281 C 72.914062 231.710938 72.75 231.722656 72.578125 231.871094 Z M 73.511719 232.945312 C 73.433594 233.0625 73.300781 233.210938 73.4375 233.398438 C 73.570312 233.585938 73.746094 233.535156 73.882812 233.398438 C 74.019531 233.257812 74.113281 233.097656 73.988281 232.917969 C 73.867188 232.742188 73.707031 232.789062 73.519531 232.941406 Z M 77.90625 238.054688 C 78.003906 238.152344 78.15625 238.253906 78.335938 238.101562 C 78.519531 237.949219 78.5 237.722656 78.324219 237.542969 C 78.269531 237.464844 78.195312 237.425781 78.097656 237.421875 C 78.003906 237.421875 77.925781 237.457031 77.867188 237.527344 C 77.734375 237.683594 77.734375 237.859375 77.914062 238.054688 Z M 86.617188 227.792969 C 86.578125 228.003906 86.652344 228.160156 86.84375 228.257812 C 86.917969 228.316406 87 228.335938 87.089844 228.324219 C 87.183594 228.308594 87.253906 228.261719 87.304688 228.1875 C 87.464844 227.957031 87.3125 227.789062 87.136719 227.667969 C 86.957031 227.542969 86.816406 227.574219 86.625 227.792969 Z M 74.441406 234.480469 C 74.511719 234.550781 74.59375 234.582031 74.6875 234.574219 C 74.785156 234.570312 74.859375 234.527344 74.917969 234.453125 C 75.097656 234.277344 75.136719 234.074219 74.953125 233.878906 C 74.894531 233.800781 74.816406 233.761719 74.714844 233.765625 C 74.617188 233.765625 74.539062 233.804688 74.480469 233.882812 C 74.398438 233.964844 74.351562 234.058594 74.347656 234.175781 C 74.339844 234.289062 74.371094 234.390625 74.441406 234.480469 Z M 75.632812 235.667969 C 75.785156 235.773438 75.90625 235.6875 76.003906 235.59375 C 76.144531 235.449219 76.195312 235.289062 76.019531 235.132812 C 75.890625 235.003906 75.746094 235.074219 75.640625 235.199219 C 75.578125 235.265625 75.550781 235.34375 75.550781 235.433594 C 75.554688 235.523438 75.585938 235.601562 75.648438 235.664062 Z M 76.824219 233.664062 C 76.671875 233.816406 76.664062 233.976562 76.8125 234.125 C 76.957031 234.269531 77.121094 234.296875 77.269531 234.136719 C 77.421875 233.980469 77.347656 233.871094 77.261719 233.753906 C 77.175781 233.636719 77.011719 233.539062 76.839844 233.660156 Z M 80.066406 235.164062 C 80.175781 235.273438 80.332031 235.394531 80.496094 235.214844 C 80.613281 235.097656 80.507812 234.949219 80.410156 234.855469 C 80.308594 234.761719 80.183594 234.5625 79.992188 234.753906 C 79.894531 234.890625 79.980469 235.027344 80.082031 235.15625 Z M 79.035156 235.976562 C 78.902344 236.109375 78.953125 236.242188 79.035156 236.351562 C 79.113281 236.457031 79.273438 236.625 79.464844 236.496094 C 79.65625 236.367188 79.539062 236.238281 79.460938 236.136719 C 79.382812 236.035156 79.25 235.863281 79.054688 235.972656 Z M 79.167969 233.523438 C 79.066406 233.464844 78.957031 233.460938 78.886719 233.542969 C 78.835938 233.597656 78.820312 233.660156 78.828125 233.734375 C 78.839844 233.808594 78.878906 233.863281 78.941406 233.898438 C 79.039062 233.992188 79.132812 233.988281 79.21875 233.882812 C 79.269531 233.828125 79.292969 233.765625 79.285156 233.695312 C 79.277344 233.621094 79.246094 233.5625 79.1875 233.519531 Z M 87.296875 226.195312 C 87.390625 226.21875 87.476562 226.207031 87.558594 226.164062 C 87.640625 226.121094 87.699219 226.054688 87.730469 225.96875 C 87.765625 225.917969 87.769531 225.871094 87.742188 225.816406 C 87.71875 225.765625 87.675781 225.734375 87.617188 225.730469 C 87.453125 225.703125 87.332031 225.765625 87.25 225.910156 C 87.214844 225.957031 87.207031 226.011719 87.21875 226.066406 C 87.230469 226.125 87.265625 226.164062 87.316406 226.191406 Z M 76.789062 236.617188 C 76.851562 236.597656 76.9375 236.605469 76.976562 236.5625 C 77.019531 236.523438 77.039062 236.476562 77.035156 236.417969 C 77.03125 236.359375 77.007812 236.3125 76.957031 236.28125 C 76.929688 236.253906 76.8125 236.292969 76.773438 236.332031 C 76.683594 236.429688 76.695312 236.519531 76.796875 236.601562 Z M 76.789062 236.617188 " fill-opacity="1" fill-rule="nonzero"/></g></g></g><g clip-path="url(#c80a1e5e7e)"><g clip-path="url(#fee7e26ed2)"><g clip-path="url(#ffc3d4313c)"><path fill="#3b3937" d="M 36.859375 177.5 C 39.238281 179.550781 41.539062 181.695312 43.824219 183.851562 C 48.769531 188.519531 53.785156 193.113281 58.5625 197.957031 C 59.597656 198.992188 60.621094 200.039062 61.632812 201.097656 C 61.863281 201.332031 62.070312 201.585938 62.257812 201.855469 C 62.390625 202.054688 62.609375 202.304688 62.324219 202.527344 C 62.039062 202.75 61.835938 202.515625 61.644531 202.363281 C 61.390625 202.152344 61.148438 201.929688 60.917969 201.691406 C 54.21875 195.046875 47.519531 188.40625 40.816406 181.761719 C 39.445312 180.394531 38.078125 179.023438 36.707031 177.652344 Z M 36.859375 177.5 " fill-opacity="1" fill-rule="nonzero"/></g></g></g><g clip-path="url(#4e9e4e0f44)"><g clip-path="url(#b8b65de7eb)"><g clip-path="url(#ffaa889581)"><path fill="#3b3937" d="M 36.480469 180.007812 C 38.300781 181.386719 39.773438 182.828125 41.421875 184.234375 C 41.285156 184.332031 41.132812 184.371094 40.964844 184.34375 C 40.796875 184.3125 40.664062 184.230469 40.566406 184.089844 C 39.253906 182.785156 37.945312 181.472656 36.480469 180.007812 Z M 36.480469 180.007812 " fill-opacity="1" fill-rule="nonzero"/></g></g></g><g clip-path="url(#c7f7f98690)"><g clip-path="url(#ef15722817)"><g clip-path="url(#ac49eaba3a)"><path fill="#3b3937" d="M 36.742188 182.46875 C 37.867188 183.011719 38.839844 183.753906 39.660156 184.695312 C 39.789062 184.824219 39.921875 185.003906 39.761719 185.164062 C 39.601562 185.324219 39.433594 185.152344 39.304688 185.03125 C 38.449219 184.179688 37.597656 183.324219 36.742188 182.46875 Z M 36.742188 182.46875 " fill-opacity="1" fill-rule="nonzero"/></g></g></g><g clip-path="url(#48ad808a91)"><g clip-path="url(#43d41bef55)"><g clip-path="url(#be3d93b9f4)"><path fill="#3b3937" d="M 36.925781 184.695312 C 37.316406 184.726562 37.582031 184.925781 37.71875 185.296875 C 37.457031 185.09375 37.183594 184.886719 36.925781 184.695312 Z M 36.925781 184.695312 " fill-opacity="1" fill-rule="nonzero"/></g></g></g><g clip-path="url(#912c401888)"><g clip-path="url(#1c9a5d4fc8)"><g clip-path="url(#85319c86c4)"><path fill="#3b3937" d="M 36.453125 185.917969 L 36.25 185.714844 C 36.503906 185.664062 36.519531 185.933594 36.453125 185.917969 Z M 36.453125 185.917969 " fill-opacity="1" fill-rule="nonzero"/></g></g></g><g fill="#967f71" fill-opacity="1"><g transform="translate(113.999997, 238.798885)"><g><path d="M 24.164062 -4.667969 C 26.097656 -10.566406 20.832031 -15.863281 15.765625 -21.03125 C 10.933594 -25.929688 6.332031 -30.597656 8.566406 -35.0625 C 10.230469 -38.460938 15.296875 -38.097656 18.164062 -37.5625 C 25.863281 -36.097656 34.328125 -30.628906 34.664062 -26.929688 C 34.761719 -25.597656 33.730469 -24.496094 31.53125 -23.664062 C 28.464844 -22.832031 25.265625 -22.664062 22.132812 -23.097656 C 21.664062 -23.164062 21.230469 -22.832031 21.164062 -22.363281 C 21.097656 -21.898438 21.429688 -21.464844 21.898438 -21.363281 C 25.332031 -20.863281 28.796875 -21.097656 32.164062 -22.03125 C 35.894531 -23.429688 36.53125 -25.5625 36.394531 -27.0625 C 35.964844 -32.128906 26.398438 -37.761719 18.5 -39.261719 C 12.699219 -40.363281 8.632812 -39.128906 7 -35.828125 C 4.199219 -30.261719 9.464844 -24.929688 14.53125 -19.796875 C 19.230469 -15.03125 24.097656 -10.097656 22.53125 -5.199219 C 21.53125 -2.101562 16.296875 -1 11.898438 -1.300781 C 7.367188 -1.601562 3.800781 -3.234375 3.433594 -5.167969 C 3.234375 -6.199219 3.765625 -9 12.664062 -13.066406 C 12.933594 -13.199219 13.132812 -13.464844 13.164062 -13.796875 C 13.199219 -14.097656 13.066406 -14.433594 12.796875 -14.597656 C 12.53125 -14.765625 12.199219 -14.796875 11.933594 -14.664062 C 4.566406 -11.300781 1.132812 -8 1.699219 -4.867188 C 2.332031 -1.398438 7.53125 0.167969 11.796875 0.433594 C 12.296875 0.464844 12.796875 0.5 13.296875 0.5 C 17.832031 0.5 22.929688 -0.832031 24.164062 -4.667969 Z M 24.164062 -4.667969 "/></g></g></g><g fill="#967f71" fill-opacity="1"><g transform="translate(142.395499, 238.798885)"><g><path d="M 27.863281 -8.066406 C 27.53125 -8.433594 26.964844 -8.464844 26.597656 -8.132812 C 26.496094 -8.03125 16.597656 0.867188 10.464844 -3.167969 C 8.03125 -4.765625 7.433594 -8.632812 7.433594 -8.664062 C 7.398438 -9.066406 7.097656 -9.367188 6.699219 -9.433594 C 6.332031 -9.464844 5.933594 -9.265625 5.765625 -8.933594 C 4.199219 -5.464844 1.433594 -1.066406 0.667969 -1.566406 C 0.601562 -1.566406 0.464844 -1.699219 0.367188 -1.933594 C -0.0351562 -3.03125 0.101562 -4.234375 0.667969 -5.265625 C 1.933594 -7.867188 4.265625 -9.730469 7.066406 -10.433594 C 7.367188 -10.5 7.597656 -10.730469 7.699219 -11.03125 C 7.800781 -11.332031 7.699219 -11.664062 7.5 -11.898438 C 7.265625 -12.097656 6.964844 -12.199219 6.664062 -12.132812 C 3.332031 -11.332031 0.566406 -9.066406 -0.933594 -6 C -1.734375 -4.5 -1.832031 -2.699219 -1.199219 -1.132812 C -0.898438 -0.367188 -0.167969 0.167969 0.667969 0.167969 L 0.699219 0.167969 C 2.332031 0.132812 4.367188 -1.898438 5.765625 -4.097656 C 5.933594 -4.367188 6.234375 -4.5 6.53125 -4.464844 C 6.832031 -4.464844 7.097656 -4.300781 7.234375 -4.03125 C 7.800781 -3.101562 8.566406 -2.300781 9.5 -1.734375 C 16.765625 3.101562 27.332031 -6.433594 27.796875 -6.832031 C 27.964844 -7 28.0625 -7.234375 28.0625 -7.433594 C 28.097656 -7.664062 27.996094 -7.898438 27.863281 -8.066406 Z M 27.863281 -8.066406 "/></g></g></g><g fill="#967f71" fill-opacity="1"><g transform="translate(169.324567, 238.798885)"><g><path d="M 29.496094 -8.433594 C 29.332031 -8.597656 29.097656 -8.699219 28.898438 -8.699219 C 28.664062 -8.699219 28.429688 -8.597656 28.265625 -8.433594 C 25.464844 -5.632812 19.730469 -2.765625 15.132812 -2.867188 C 13.296875 -2.800781 11.5 -3.5 10.199219 -4.832031 C 10.164062 -4.867188 10.097656 -4.933594 10.066406 -5 C 10.03125 -5.097656 10.03125 -5.199219 10.066406 -5.332031 C 10.730469 -6.5 11.132812 -7.832031 11.164062 -9.199219 C 11.164062 -9.867188 10.765625 -10.464844 10.132812 -10.730469 C 9.265625 -11.199219 8.132812 -10.964844 7.566406 -10.132812 C 6.800781 -9.03125 7.066406 -6.964844 7.832031 -5.332031 C 7.867188 -5.199219 7.867188 -5.097656 7.832031 -4.964844 C 7.300781 -4.132812 6.664062 -3.398438 5.964844 -2.734375 C 5.265625 -2.101562 4.265625 -1.464844 3.5 -1.898438 C 1.800781 -3.53125 1.765625 -7.566406 1.898438 -8.964844 C 1.933594 -9.433594 1.601562 -9.867188 1.132812 -9.898438 C 0.667969 -9.964844 0.234375 -9.632812 0.167969 -9.132812 C 0.167969 -8.898438 -0.398438 -3.066406 2.367188 -0.535156 C 2.398438 -0.5 2.464844 -0.464844 2.5 -0.464844 C 2.964844 -0.167969 3.5 0 4.03125 0 C 4.765625 0 5.464844 -0.234375 6.066406 -0.632812 C 7 -1.265625 7.832031 -2.066406 8.53125 -2.964844 C 8.664062 -3.101562 8.867188 -3.199219 9.066406 -3.199219 C 9.265625 -3.199219 9.464844 -3.132812 9.597656 -2.964844 C 11.132812 -1.734375 13.097656 -1.066406 15.097656 -1.101562 C 20.429688 -0.964844 26.464844 -4.167969 29.496094 -7.199219 C 29.664062 -7.367188 29.765625 -7.597656 29.765625 -7.832031 C 29.765625 -8.066406 29.664062 -8.265625 29.496094 -8.433594 Z M 9.097656 -7.464844 C 9.066406 -7.398438 8.964844 -7.398438 8.964844 -7.464844 C 8.800781 -8 8.800781 -8.597656 9 -9.132812 C 9.066406 -9.199219 9.132812 -9.265625 9.230469 -9.265625 C 9.300781 -9.230469 9.367188 -9.199219 9.433594 -9.132812 C 9.433594 -8.53125 9.332031 -7.964844 9.097656 -7.464844 Z M 9.097656 -7.464844 "/></g></g></g><g fill="#967f71" fill-opacity="1"><g transform="translate(197.320132, 238.798885)"><g><path d="M 29.496094 -8.433594 C 29.332031 -8.597656 29.097656 -8.699219 28.898438 -8.699219 C 28.664062 -8.699219 28.429688 -8.597656 28.265625 -8.433594 C 25.464844 -5.632812 19.730469 -2.765625 15.132812 -2.867188 C 13.296875 -2.800781 11.5 -3.5 10.199219 -4.832031 C 10.164062 -4.867188 10.097656 -4.933594 10.066406 -5 C 10.03125 -5.097656 10.03125 -5.199219 10.066406 -5.332031 C 10.730469 -6.5 11.132812 -7.832031 11.164062 -9.199219 C 11.164062 -9.867188 10.765625 -10.464844 10.132812 -10.730469 C 9.265625 -11.199219 8.132812 -10.964844 7.566406 -10.132812 C 6.800781 -9.03125 7.066406 -6.964844 7.832031 -5.332031 C 7.867188 -5.199219 7.867188 -5.097656 7.832031 -4.964844 C 7.300781 -4.132812 6.664062 -3.398438 5.964844 -2.734375 C 5.265625 -2.101562 4.265625 -1.464844 3.5 -1.898438 C 1.800781 -3.53125 1.765625 -7.566406 1.898438 -8.964844 C 1.933594 -9.433594 1.601562 -9.867188 1.132812 -9.898438 C 0.667969 -9.964844 0.234375 -9.632812 0.167969 -9.132812 C 0.167969 -8.898438 -0.398438 -3.066406 2.367188 -0.535156 C 2.398438 -0.5 2.464844 -0.464844 2.5 -0.464844 C 2.964844 -0.167969 3.5 0 4.03125 0 C 4.765625 0 5.464844 -0.234375 6.066406 -0.632812 C 7 -1.265625 7.832031 -2.066406 8.53125 -2.964844 C 8.664062 -3.101562 8.867188 -3.199219 9.066406 -3.199219 C 9.265625 -3.199219 9.464844 -3.132812 9.597656 -2.964844 C 11.132812 -1.734375 13.097656 -1.066406 15.097656 -1.101562 C 20.429688 -0.964844 26.464844 -4.167969 29.496094 -7.199219 C 29.664062 -7.367188 29.765625 -7.597656 29.765625 -7.832031 C 29.765625 -8.066406 29.664062 -8.265625 29.496094 -8.433594 Z M 9.097656 -7.464844 C 9.066406 -7.398438 8.964844 -7.398438 8.964844 -7.464844 C 8.800781 -8 8.800781 -8.597656 9 -9.132812 C 9.066406 -9.199219 9.132812 -9.265625 9.230469 -9.265625 C 9.300781 -9.230469 9.367188 -9.199219 9.433594 -9.132812 C 9.433594 -8.53125 9.332031 -7.964844 9.097656 -7.464844 Z M 9.097656 -7.464844 "/></g></g></g><g fill="#967f71" fill-opacity="1"><g transform="translate(225.315698, 238.798885)"><g><path d="M 26.363281 -9.164062 C 25.996094 -9.5 25.464844 -9.5 25.128906 -9.164062 C 24.929688 -8.964844 20.566406 -4.632812 14.664062 -8.964844 C 14.332031 -9.199219 13.898438 -9.199219 13.566406 -8.898438 C 13.03125 -8.433594 12.464844 -7.867188 11.867188 -7.265625 C 11.632812 -7 11.230469 -6.898438 10.898438 -7.03125 C 10.566406 -7.164062 10.332031 -7.464844 10.300781 -7.832031 C 10.300781 -8.53125 10.199219 -9.230469 9.964844 -9.898438 C 9.832031 -10.265625 9.464844 -10.5 9.066406 -10.433594 C 8.664062 -10.398438 8.367188 -10.097656 8.300781 -9.730469 C 8.300781 -9.664062 7.234375 -3.765625 2.699219 -2.566406 C 2.300781 -2.433594 1.867188 -2.53125 1.566406 -2.832031 C 1.300781 -3.132812 0.535156 -4.464844 2.265625 -8.699219 C 2.433594 -9.164062 2.234375 -9.664062 1.765625 -9.832031 C 1.332031 -10.03125 0.800781 -9.800781 0.632812 -9.367188 C -1.234375 -4.765625 -0.601562 -2.632812 0.234375 -1.667969 C 0.964844 -0.867188 2.101562 -0.566406 3.132812 -0.898438 C 5.464844 -1.53125 7.398438 -3.132812 8.5 -5.265625 C 8.464844 -4.632812 8.367188 -4 8.265625 -3.332031 C 8.234375 -3.199219 8.164062 -3.03125 8.066406 -2.898438 C 4.167969 2 0.632812 8 0.566406 11.765625 C 0.464844 12.765625 0.832031 13.765625 1.53125 14.53125 C 1.832031 14.832031 2.234375 15.03125 2.667969 15.03125 C 3.03125 15 3.398438 14.898438 3.699219 14.699219 C 5.898438 13.230469 8.699219 4.699219 9.800781 -2.101562 C 9.832031 -2.265625 9.898438 -2.398438 10 -2.53125 C 11.03125 -3.800781 12.097656 -5 13.164062 -6.066406 C 13.765625 -6.699219 14.664062 -6.832031 15.433594 -6.433594 C 19.03125 -4.53125 23.429688 -5.132812 26.363281 -7.933594 C 26.53125 -8.097656 26.628906 -8.332031 26.628906 -8.566406 C 26.628906 -8.800781 26.53125 -9 26.363281 -9.164062 Z M 7.332031 1.53125 C 6.597656 4.867188 5.53125 8.066406 4.132812 11.164062 C 3.367188 12.699219 3.03125 13.296875 2.699219 13.230469 C 2.398438 13.199219 2.300781 12.464844 2.332031 11.796875 C 2.367188 9.367188 4.367188 5.367188 7.03125 1.464844 C 7.199219 1.234375 7.398438 1.300781 7.332031 1.53125 Z M 7.332031 1.53125 "/></g></g></g><g fill="#967f71" fill-opacity="1"><g transform="translate(250.078445, 238.798885)"><g/></g></g><g fill="#967f71" fill-opacity="1"><g transform="translate(262.476481, 238.798885)"><g><path d="M 27.429688 -6.398438 C 27.695312 -6.800781 27.597656 -7.332031 27.199219 -7.632812 C 26.796875 -7.898438 26.230469 -7.800781 25.964844 -7.398438 C 25.730469 -7.03125 19.929688 1.265625 11 -2.03125 C 2.433594 -5.199219 2 -11.832031 3.132812 -16.863281 C 5.597656 -27.730469 16.832031 -38.53125 22.863281 -37.996094 C 23.964844 -37.929688 25.0625 -37.597656 25.996094 -36.996094 C 26.363281 -36.664062 26.597656 -36.195312 26.53125 -35.730469 C 26.496094 -35.230469 26.199219 -34.796875 25.765625 -34.597656 C 22.199219 -32.695312 19.164062 -29.863281 17.066406 -26.429688 C 15.933594 -24.429688 15.699219 -22.832031 16.363281 -21.730469 C 16.898438 -20.964844 17.796875 -20.53125 18.765625 -20.632812 C 23.164062 -20.730469 28.863281 -27.964844 29.265625 -33.496094 C 29.230469 -33.929688 29.496094 -34.328125 29.898438 -34.464844 C 31.398438 -34.929688 32.996094 -35.195312 34.597656 -35.195312 C 35.097656 -35.195312 35.464844 -35.597656 35.464844 -36.097656 C 35.464844 -36.5625 35.0625 -36.964844 34.597656 -36.964844 L 34.5625 -36.964844 C 33.195312 -36.929688 31.832031 -36.761719 30.496094 -36.429688 C 29.628906 -36.230469 28.695312 -36.5625 28.164062 -37.296875 C 26.863281 -38.796875 24.996094 -39.664062 22.996094 -39.730469 C 15.664062 -40.429688 3.933594 -28.230469 1.433594 -17.230469 C -0.398438 -9.199219 2.765625 -3.199219 10.398438 -0.398438 C 11.898438 0.167969 13.5 0.464844 15.097656 0.5 C 22.632812 0.5 27.363281 -6.300781 27.429688 -6.398438 Z M 18.699219 -22.363281 C 18.398438 -22.363281 18 -22.398438 17.863281 -22.632812 C 17.632812 -23.03125 17.765625 -24.097656 18.566406 -25.5625 C 20.363281 -28.464844 22.832031 -30.898438 25.765625 -32.597656 C 26.097656 -32.796875 26.496094 -32.761719 26.832031 -32.53125 C 27.128906 -32.296875 27.265625 -31.898438 27.164062 -31.53125 C 25.898438 -27.128906 21.464844 -22.429688 18.699219 -22.363281 Z M 18.699219 -22.363281 "/></g></g></g><g fill="#967f71" fill-opacity="1"><g transform="translate(292.005143, 238.798885)"><g><path d="M 26.296875 -7.964844 C 25.964844 -8.332031 25.429688 -8.367188 25.0625 -8.03125 C 24.996094 -8 18.132812 -2 13.097656 -2.800781 C 11.597656 -3.03125 10.300781 -3.933594 9.566406 -5.265625 C 8.933594 -6.433594 7.765625 -7.164062 6.464844 -7.300781 C 4.832031 -7.398438 3.03125 -6.433594 1.132812 -4.433594 C 1.035156 -4.332031 0.867188 -4.300781 0.734375 -4.367188 C 0.601562 -4.433594 0.535156 -4.566406 0.566406 -4.734375 C 0.667969 -5.367188 0.964844 -6.964844 1.101562 -7.566406 C 1.101562 -7.464844 1.332031 -7.933594 1.332031 -7.964844 C 4.167969 -11.832031 12.632812 -24.097656 9.332031 -28.03125 C 8.898438 -28.628906 8.097656 -28.898438 7.367188 -28.695312 C 6.699219 -28.496094 4.667969 -27.863281 1.53125 -16.730469 C 0.765625 -14.03125 0.0664062 -11.132812 -0.5 -8.398438 L -0.734375 -8.097656 C -0.964844 -7.800781 -0.964844 -7.398438 -0.765625 -7.066406 C -1.265625 -4.597656 -1.601562 -2.332031 -1.765625 -0.601562 C -1.800781 -0.199219 -1.566406 0.167969 -1.199219 0.300781 C -0.832031 0.433594 -0.398438 0.300781 -0.167969 -0.0351562 C 3.234375 -4.964844 5.398438 -5.597656 6.367188 -5.566406 C 7.066406 -5.5 7.699219 -5.066406 8.03125 -4.433594 C 9.03125 -2.632812 10.800781 -1.367188 12.867188 -1.066406 C 18.664062 -0.167969 25.898438 -6.464844 26.230469 -6.734375 C 26.5625 -7.066406 26.597656 -7.597656 26.296875 -7.964844 Z M 7.867188 -27.03125 C 7.933594 -27.03125 7.964844 -26.929688 8 -26.898438 C 9.597656 -25.097656 2.964844 -11.699219 2.132812 -12.230469 C 1.332031 -12.730469 6.464844 -27.03125 7.867188 -27.03125 Z M 7.867188 -27.03125 "/></g></g></g><g fill="#967f71" fill-opacity="1"><g transform="translate(317.201141, 238.798885)"><g><path d="M 27.964844 -8.566406 C 27.796875 -8.734375 27.597656 -8.867188 27.363281 -8.867188 C 27.128906 -8.898438 26.898438 -8.832031 26.730469 -8.699219 C 26.597656 -8.597656 13.765625 1.601562 3.066406 -2.800781 C 0.898438 -3.699219 0.800781 -4.867188 0.867188 -5.5 C 0.867188 -5.597656 0.898438 -5.699219 1 -5.765625 C 1.066406 -5.832031 1.199219 -5.832031 1.300781 -5.800781 C 3.464844 -5.667969 5.632812 -6.234375 7.5 -7.398438 C 9.097656 -8.433594 9.367188 -9.566406 9.265625 -10.300781 C 9.199219 -11.5 8.234375 -12.464844 7 -12.5 C 4.367188 -12.632812 -0.0351562 -9.5 -0.765625 -6.167969 C -1.066406 -4.933594 -1.035156 -2.601562 2.398438 -1.199219 C 4.5 -0.332031 6.699219 0.0664062 8.933594 0.0664062 C 18.5 0.0664062 27.363281 -6.964844 27.832031 -7.332031 C 27.996094 -7.464844 28.128906 -7.699219 28.128906 -7.898438 C 28.164062 -8.132812 28.097656 -8.367188 27.964844 -8.566406 Z M 2.066406 -7.832031 C 3.367188 -9.632812 5.53125 -10.832031 6.898438 -10.730469 C 7.265625 -10.730469 7.464844 -10.597656 7.53125 -10.097656 C 7.566406 -9.765625 7.199219 -9.300781 6.53125 -8.867188 C 5.167969 -7.964844 1.066406 -6.5 2.066406 -7.832031 Z M 2.066406 -7.832031 "/></g></g></g><g fill="#967f71" fill-opacity="1"><g transform="translate(343.896909, 238.798885)"><g><path d="M 22.03125 -8.664062 C 21.863281 -8.832031 21.664062 -8.933594 21.429688 -8.933594 C 21.199219 -8.933594 20.964844 -8.867188 20.796875 -8.699219 C 16.699219 -4.765625 6.199219 -6.53125 2.433594 -7.800781 C 1.667969 -8.03125 1.699219 -8.332031 2.167969 -8.800781 C 4.53125 -11.464844 9.230469 -17.066406 8.597656 -19.363281 C 8.464844 -19.929688 8 -20.363281 7.433594 -20.53125 C 6.832031 -20.699219 6.199219 -20.597656 5.667969 -20.265625 C 3.332031 -18.964844 1.367188 -13.398438 0.132812 -9.199219 L 0.101562 -9.132812 C -0.0351562 -9.03125 -0.101562 -8.867188 -0.132812 -8.699219 C -0.632812 -8.464844 -0.765625 -8.097656 -0.632812 -6.332031 C -0.632812 -6.265625 -0.632812 -6.234375 -0.667969 -6.199219 C -2.601562 1.699219 -4.300781 13.230469 -2.132812 15.230469 C -1.867188 15.5 -1.5 15.632812 -1.132812 15.632812 C -0.933594 15.632812 -0.734375 15.597656 -0.566406 15.53125 C 2.765625 14.363281 2.234375 5.898438 1.367188 -3.398438 C 1.300781 -4.097656 1.234375 -4.800781 1.167969 -5.433594 C 1.132812 -6 1.464844 -6.265625 2.03125 -6.066406 C 4.632812 -5.265625 7.300781 -4.765625 10 -4.597656 C 13.832031 -4.332031 19.066406 -4.597656 21.996094 -7.433594 C 22.363281 -7.765625 22.363281 -8.332031 22.03125 -8.664062 Z M 6.53125 -18.765625 C 6.53125 -18.765625 6.734375 -19 6.933594 -18.898438 C 7.300781 -18.699219 5.199219 -14.832031 3.332031 -12.898438 C 1.167969 -10.664062 5.632812 -18.03125 6.53125 -18.765625 Z M -1.035156 13.832031 C -2.265625 13.632812 -0.867188 -0.132812 -0.167969 -0.132812 C 0.535156 -0.132812 0.199219 14.03125 -1.035156 13.832031 Z M -1.035156 13.832031 "/></g></g></g></svg>