<svg xmlns="http://www.w3.org/2000/svg" xmlns:xlink="http://www.w3.org/1999/xlink" width="1304" zoomAndPan="magnify" viewBox="0 0 978 155.999997" height="208" preserveAspectRatio="xMidYMid meet" version="1.0"><defs><g/></defs><g fill="#f4f4f4" fill-opacity="1"><g transform="translate(181.253041, 107.926374)"><g><path d="M 59.351562 -11.460938 C 64.101562 -25.953125 51.167969 -38.96875 38.722656 -51.65625 C 26.851562 -63.691406 15.554688 -75.152344 21.039062 -86.125 C 25.132812 -94.472656 37.578125 -93.574219 44.617188 -92.265625 C 63.527344 -88.660156 84.324219 -75.234375 85.140625 -66.148438 C 85.386719 -62.875 82.847656 -60.171875 77.445312 -58.125 C 69.914062 -56.078125 62.054688 -55.667969 54.359375 -56.734375 C 53.214844 -56.898438 52.148438 -56.078125 51.984375 -54.933594 C 51.820312 -53.785156 52.640625 -52.722656 53.785156 -52.476562 C 62.21875 -51.25 70.734375 -51.820312 79 -54.113281 C 88.171875 -57.550781 89.726562 -62.792969 89.398438 -66.476562 C 88.335938 -78.917969 64.839844 -92.753906 45.4375 -96.4375 C 31.191406 -99.140625 21.203125 -96.113281 17.191406 -88.007812 C 10.316406 -74.335938 23.25 -61.238281 35.695312 -48.628906 C 47.238281 -36.921875 59.191406 -24.804688 55.34375 -12.769531 C 52.886719 -5.15625 40.03125 -2.457031 29.226562 -3.191406 C 18.09375 -3.929688 9.332031 -7.941406 8.433594 -12.6875 C 7.941406 -15.226562 9.25 -22.105469 31.109375 -32.09375 C 31.765625 -32.417969 32.253906 -33.074219 32.335938 -33.894531 C 32.417969 -34.628906 32.09375 -35.449219 31.4375 -35.859375 C 30.78125 -36.265625 29.964844 -36.347656 29.308594 -36.019531 C 11.214844 -27.753906 2.785156 -19.648438 4.175781 -11.953125 C 5.730469 -3.4375 18.5 0.410156 28.980469 1.0625 C 30.207031 1.144531 31.4375 1.226562 32.664062 1.226562 C 43.796875 1.226562 56.324219 -2.046875 59.351562 -11.460938 Z M 59.351562 -11.460938 "/></g></g></g><g fill="#f4f4f4" fill-opacity="1"><g transform="translate(251.004125, 107.926374)"><g><path d="M 68.441406 -19.8125 C 67.621094 -20.710938 66.230469 -20.792969 65.328125 -19.976562 C 65.085938 -19.730469 40.769531 2.128906 25.707031 -7.777344 C 19.730469 -11.707031 18.257812 -21.203125 18.257812 -21.285156 C 18.175781 -22.269531 17.4375 -23.003906 16.457031 -23.167969 C 15.554688 -23.25 14.574219 -22.757812 14.164062 -21.941406 C 10.316406 -13.425781 3.519531 -2.621094 1.636719 -3.847656 C 1.472656 -3.847656 1.144531 -4.175781 0.902344 -4.75 C -0.0820312 -7.449219 0.246094 -10.398438 1.636719 -12.933594 C 4.75 -19.320312 10.480469 -23.90625 17.355469 -25.625 C 18.09375 -25.789062 18.664062 -26.359375 18.910156 -27.097656 C 19.15625 -27.835938 18.910156 -28.652344 18.421875 -29.226562 C 17.847656 -29.71875 17.109375 -29.964844 16.375 -29.800781 C 8.1875 -27.835938 1.390625 -22.269531 -2.292969 -14.734375 C -4.257812 -11.050781 -4.503906 -6.632812 -2.945312 -2.785156 C -2.210938 -0.902344 -0.410156 0.410156 1.636719 0.410156 L 1.71875 0.410156 C 5.730469 0.328125 10.722656 -4.667969 14.164062 -10.070312 C 14.574219 -10.722656 15.308594 -11.050781 16.046875 -10.96875 C 16.78125 -10.96875 17.4375 -10.5625 17.765625 -9.90625 C 19.15625 -7.613281 21.039062 -5.648438 23.332031 -4.257812 C 41.179688 7.613281 67.128906 -15.800781 68.277344 -16.78125 C 68.6875 -17.191406 68.933594 -17.765625 68.933594 -18.257812 C 69.015625 -18.828125 68.769531 -19.402344 68.441406 -19.8125 Z M 68.441406 -19.8125 "/></g></g></g><g fill="#f4f4f4" fill-opacity="1"><g transform="translate(317.153067, 107.926374)"><g><path d="M 72.453125 -20.710938 C 72.042969 -21.121094 71.46875 -21.367188 70.980469 -21.367188 C 70.40625 -21.367188 69.832031 -21.121094 69.421875 -20.710938 C 62.546875 -13.835938 48.464844 -6.796875 37.167969 -7.039062 C 32.664062 -6.875 28.242188 -8.597656 25.050781 -11.871094 C 24.96875 -11.953125 24.804688 -12.117188 24.722656 -12.28125 C 24.640625 -12.527344 24.640625 -12.769531 24.722656 -13.097656 C 26.359375 -15.964844 27.34375 -19.238281 27.425781 -22.59375 C 27.425781 -24.234375 26.441406 -25.707031 24.886719 -26.359375 C 22.757812 -27.507812 19.976562 -26.933594 18.582031 -24.886719 C 16.699219 -22.1875 17.355469 -17.109375 19.238281 -13.097656 C 19.320312 -12.769531 19.320312 -12.527344 19.238281 -12.199219 C 17.929688 -10.152344 16.375 -8.351562 14.652344 -6.714844 C 12.933594 -5.15625 10.480469 -3.601562 8.597656 -4.667969 C 4.421875 -8.679688 4.339844 -18.582031 4.667969 -22.023438 C 4.75 -23.167969 3.929688 -24.234375 2.785156 -24.316406 C 1.636719 -24.476562 0.574219 -23.660156 0.410156 -22.429688 C 0.410156 -21.859375 -0.980469 -7.53125 5.8125 -1.308594 C 5.894531 -1.226562 6.058594 -1.144531 6.140625 -1.144531 C 7.285156 -0.410156 8.597656 0 9.90625 0 C 11.707031 0 13.425781 -0.574219 14.898438 -1.554688 C 17.191406 -3.109375 19.238281 -5.074219 20.957031 -7.285156 C 21.285156 -7.613281 21.777344 -7.859375 22.269531 -7.859375 C 22.757812 -7.859375 23.25 -7.695312 23.578125 -7.285156 C 27.34375 -4.257812 32.171875 -2.621094 37.085938 -2.703125 C 50.183594 -2.375 65.003906 -10.234375 72.453125 -17.683594 C 72.863281 -18.09375 73.105469 -18.664062 73.105469 -19.238281 C 73.105469 -19.8125 72.863281 -20.304688 72.453125 -20.710938 Z M 22.351562 -18.339844 C 22.269531 -18.175781 22.023438 -18.175781 22.023438 -18.339844 C 21.613281 -19.648438 21.613281 -21.121094 22.105469 -22.429688 C 22.269531 -22.59375 22.429688 -22.757812 22.675781 -22.757812 C 22.839844 -22.675781 23.003906 -22.59375 23.167969 -22.429688 C 23.167969 -20.957031 22.921875 -19.566406 22.351562 -18.339844 Z M 22.351562 -18.339844 "/></g></g></g><g fill="#f4f4f4" fill-opacity="1"><g transform="translate(385.921768, 107.926374)"><g><path d="M 72.453125 -20.710938 C 72.042969 -21.121094 71.46875 -21.367188 70.980469 -21.367188 C 70.40625 -21.367188 69.832031 -21.121094 69.421875 -20.710938 C 62.546875 -13.835938 48.464844 -6.796875 37.167969 -7.039062 C 32.664062 -6.875 28.242188 -8.597656 25.050781 -11.871094 C 24.96875 -11.953125 24.804688 -12.117188 24.722656 -12.28125 C 24.640625 -12.527344 24.640625 -12.769531 24.722656 -13.097656 C 26.359375 -15.964844 27.34375 -19.238281 27.425781 -22.59375 C 27.425781 -24.234375 26.441406 -25.707031 24.886719 -26.359375 C 22.757812 -27.507812 19.976562 -26.933594 18.582031 -24.886719 C 16.699219 -22.1875 17.355469 -17.109375 19.238281 -13.097656 C 19.320312 -12.769531 19.320312 -12.527344 19.238281 -12.199219 C 17.929688 -10.152344 16.375 -8.351562 14.652344 -6.714844 C 12.933594 -5.15625 10.480469 -3.601562 8.597656 -4.667969 C 4.421875 -8.679688 4.339844 -18.582031 4.667969 -22.023438 C 4.75 -23.167969 3.929688 -24.234375 2.785156 -24.316406 C 1.636719 -24.476562 0.574219 -23.660156 0.410156 -22.429688 C 0.410156 -21.859375 -0.980469 -7.53125 5.8125 -1.308594 C 5.894531 -1.226562 6.058594 -1.144531 6.140625 -1.144531 C 7.285156 -0.410156 8.597656 0 9.90625 0 C 11.707031 0 13.425781 -0.574219 14.898438 -1.554688 C 17.191406 -3.109375 19.238281 -5.074219 20.957031 -7.285156 C 21.285156 -7.613281 21.777344 -7.859375 22.269531 -7.859375 C 22.757812 -7.859375 23.25 -7.695312 23.578125 -7.285156 C 27.34375 -4.257812 32.171875 -2.621094 37.085938 -2.703125 C 50.183594 -2.375 65.003906 -10.234375 72.453125 -17.683594 C 72.863281 -18.09375 73.105469 -18.664062 73.105469 -19.238281 C 73.105469 -19.8125 72.863281 -20.304688 72.453125 -20.710938 Z M 22.351562 -18.339844 C 22.269531 -18.175781 22.023438 -18.175781 22.023438 -18.339844 C 21.613281 -19.648438 21.613281 -21.121094 22.105469 -22.429688 C 22.269531 -22.59375 22.429688 -22.757812 22.675781 -22.757812 C 22.839844 -22.675781 23.003906 -22.59375 23.167969 -22.429688 C 23.167969 -20.957031 22.921875 -19.566406 22.351562 -18.339844 Z M 22.351562 -18.339844 "/></g></g></g><g fill="#f4f4f4" fill-opacity="1"><g transform="translate(454.690468, 107.926374)"><g><path d="M 64.757812 -22.511719 C 63.855469 -23.332031 62.546875 -23.332031 61.726562 -22.511719 C 61.238281 -22.023438 50.511719 -11.378906 36.019531 -22.023438 C 35.203125 -22.59375 34.136719 -22.59375 33.320312 -21.859375 C 32.011719 -20.710938 30.617188 -19.320312 29.144531 -17.847656 C 28.570312 -17.191406 27.589844 -16.945312 26.769531 -17.273438 C 25.953125 -17.601562 25.378906 -18.339844 25.296875 -19.238281 C 25.296875 -20.957031 25.050781 -22.675781 24.476562 -24.316406 C 24.152344 -25.214844 23.25 -25.789062 22.269531 -25.625 C 21.285156 -25.542969 20.546875 -24.804688 20.386719 -23.90625 C 20.386719 -23.742188 17.765625 -9.25 6.632812 -6.304688 C 5.648438 -5.976562 4.585938 -6.222656 3.847656 -6.957031 C 3.191406 -7.695312 1.308594 -10.96875 5.566406 -21.367188 C 5.976562 -22.511719 5.484375 -23.742188 4.339844 -24.152344 C 3.273438 -24.640625 1.964844 -24.070312 1.554688 -23.003906 C -3.027344 -11.707031 -1.472656 -6.46875 0.574219 -4.09375 C 2.375 -2.128906 5.15625 -1.390625 7.695312 -2.210938 C 13.425781 -3.765625 18.175781 -7.695312 20.875 -12.933594 C 20.792969 -11.378906 20.546875 -9.824219 20.304688 -8.1875 C 20.222656 -7.859375 20.058594 -7.449219 19.8125 -7.121094 C 10.234375 4.910156 1.554688 19.648438 1.390625 28.898438 C 1.144531 31.355469 2.046875 33.8125 3.765625 35.695312 C 4.503906 36.429688 5.484375 36.921875 6.550781 36.921875 C 7.449219 36.839844 8.351562 36.59375 9.085938 36.101562 C 14.492188 32.5 21.367188 11.542969 24.070312 -5.15625 C 24.152344 -5.566406 24.316406 -5.894531 24.558594 -6.222656 C 27.097656 -9.332031 29.71875 -12.28125 32.335938 -14.898438 C 33.8125 -16.457031 36.019531 -16.78125 37.90625 -15.800781 C 46.746094 -11.132812 57.550781 -12.609375 64.757812 -19.484375 C 65.167969 -19.894531 65.410156 -20.464844 65.410156 -21.039062 C 65.410156 -21.613281 65.167969 -22.105469 64.757812 -22.511719 Z M 18.011719 3.765625 C 16.210938 11.953125 13.589844 19.8125 10.152344 27.425781 C 8.269531 31.191406 7.449219 32.664062 6.632812 32.5 C 5.894531 32.417969 5.648438 30.617188 5.730469 28.980469 C 5.8125 23.003906 10.722656 13.179688 17.273438 3.601562 C 17.683594 3.027344 18.175781 3.191406 18.011719 3.765625 Z M 18.011719 3.765625 "/></g></g></g><g fill="#f4f4f4" fill-opacity="1"><g transform="translate(515.517969, 107.926374)"><g/></g></g><g fill="#f4f4f4" fill-opacity="1"><g transform="translate(545.972682, 107.926374)"><g><path d="M 67.375 -15.71875 C 68.03125 -16.699219 67.785156 -18.011719 66.804688 -18.746094 C 65.820312 -19.402344 64.429688 -19.15625 63.773438 -18.175781 C 63.203125 -17.273438 48.957031 3.109375 27.015625 -4.992188 C 5.976562 -12.769531 4.910156 -29.0625 7.695312 -41.425781 C 13.753906 -68.113281 41.34375 -94.636719 56.160156 -93.328125 C 58.863281 -93.164062 61.5625 -92.347656 63.855469 -90.871094 C 64.757812 -90.054688 65.328125 -88.90625 65.167969 -87.761719 C 65.085938 -86.535156 64.347656 -85.46875 63.28125 -84.976562 C 54.523438 -80.3125 47.074219 -73.351562 41.914062 -64.921875 C 39.132812 -60.007812 38.558594 -56.078125 40.195312 -53.378906 C 41.507812 -51.496094 43.71875 -50.429688 46.089844 -50.675781 C 56.898438 -50.921875 70.898438 -68.6875 71.878906 -82.277344 C 71.796875 -83.339844 72.453125 -84.324219 73.433594 -84.648438 C 77.117188 -85.796875 81.046875 -86.453125 84.976562 -86.453125 C 86.207031 -86.453125 87.105469 -87.433594 87.105469 -88.660156 C 87.105469 -89.808594 86.125 -90.789062 84.976562 -90.789062 L 84.894531 -90.789062 C 81.539062 -90.707031 78.183594 -90.300781 74.90625 -89.480469 C 72.78125 -88.988281 70.488281 -89.808594 69.175781 -91.609375 C 65.984375 -95.292969 61.398438 -97.421875 56.488281 -97.585938 C 38.476562 -99.304688 9.660156 -69.339844 3.519531 -42.324219 C -0.980469 -22.59375 6.796875 -7.859375 25.542969 -0.980469 C 29.226562 0.410156 33.15625 1.144531 37.085938 1.226562 C 55.585938 1.226562 67.210938 -15.472656 67.375 -15.71875 Z M 45.925781 -54.933594 C 45.191406 -54.933594 44.207031 -55.015625 43.878906 -55.585938 C 43.308594 -56.570312 43.636719 -59.191406 45.601562 -62.792969 C 50.019531 -69.914062 56.078125 -75.890625 63.28125 -80.066406 C 64.101562 -80.558594 65.085938 -80.476562 65.902344 -79.902344 C 66.640625 -79.328125 66.96875 -78.347656 66.722656 -77.445312 C 63.609375 -66.640625 52.722656 -55.097656 45.925781 -54.933594 Z M 45.925781 -54.933594 "/></g></g></g><g fill="#f4f4f4" fill-opacity="1"><g transform="translate(618.507272, 107.926374)"><g><path d="M 64.59375 -19.566406 C 63.773438 -20.464844 62.464844 -20.546875 61.5625 -19.730469 C 61.398438 -19.648438 44.535156 -4.910156 32.171875 -6.875 C 28.488281 -7.449219 25.296875 -9.660156 23.496094 -12.933594 C 21.941406 -15.800781 19.074219 -17.601562 15.882812 -17.929688 C 11.871094 -18.175781 7.449219 -15.800781 2.785156 -10.886719 C 2.539062 -10.644531 2.128906 -10.5625 1.800781 -10.722656 C 1.472656 -10.886719 1.308594 -11.214844 1.390625 -11.625 C 1.636719 -13.179688 2.375 -17.109375 2.703125 -18.582031 C 2.703125 -18.339844 3.273438 -19.484375 3.273438 -19.566406 C 10.234375 -29.0625 31.027344 -59.191406 22.921875 -68.851562 C 21.859375 -70.324219 19.894531 -70.980469 18.09375 -70.488281 C 16.457031 -69.996094 11.460938 -68.441406 3.765625 -41.097656 C 1.882812 -34.464844 0.164062 -27.34375 -1.226562 -20.628906 L -1.800781 -19.894531 C -2.375 -19.15625 -2.375 -18.175781 -1.882812 -17.355469 C -3.109375 -11.296875 -3.929688 -5.730469 -4.339844 -1.472656 C -4.421875 -0.492188 -3.847656 0.410156 -2.945312 0.738281 C -2.046875 1.0625 -0.980469 0.738281 -0.410156 -0.0820312 C 7.941406 -12.199219 13.261719 -13.753906 15.636719 -13.671875 C 17.355469 -13.507812 18.910156 -12.445312 19.730469 -10.886719 C 22.1875 -6.46875 26.523438 -3.355469 31.601562 -2.621094 C 45.84375 -0.410156 63.609375 -15.882812 64.429688 -16.535156 C 65.246094 -17.355469 65.328125 -18.664062 64.59375 -19.566406 Z M 19.320312 -66.394531 C 19.484375 -66.394531 19.566406 -66.148438 19.648438 -66.066406 C 23.578125 -61.644531 7.285156 -28.734375 5.238281 -30.046875 C 3.273438 -31.273438 15.882812 -66.394531 19.320312 -66.394531 Z M 19.320312 -66.394531 "/></g></g></g><g fill="#f4f4f4" fill-opacity="1"><g transform="translate(680.399082, 107.926374)"><g><path d="M 68.6875 -21.039062 C 68.277344 -21.449219 67.785156 -21.777344 67.210938 -21.777344 C 66.640625 -21.859375 66.066406 -21.695312 65.65625 -21.367188 C 65.328125 -21.121094 33.8125 3.929688 7.53125 -6.875 C 2.210938 -9.085938 1.964844 -11.953125 2.128906 -13.507812 C 2.128906 -13.753906 2.210938 -14 2.457031 -14.164062 C 2.621094 -14.328125 2.945312 -14.328125 3.191406 -14.246094 C 8.515625 -13.917969 13.835938 -15.308594 18.421875 -18.175781 C 22.351562 -20.710938 23.003906 -23.496094 22.757812 -25.296875 C 22.59375 -28.242188 20.222656 -30.617188 17.191406 -30.699219 C 10.722656 -31.027344 -0.0820312 -23.332031 -1.882812 -15.144531 C -2.621094 -12.117188 -2.539062 -6.386719 5.894531 -2.945312 C 11.050781 -0.820312 16.457031 0.164062 21.941406 0.164062 C 45.4375 0.164062 67.210938 -17.109375 68.359375 -18.011719 C 68.769531 -18.339844 69.09375 -18.910156 69.09375 -19.402344 C 69.175781 -19.976562 69.015625 -20.546875 68.6875 -21.039062 Z M 5.074219 -19.238281 C 8.269531 -23.660156 13.589844 -26.605469 16.945312 -26.359375 C 17.847656 -26.359375 18.339844 -26.035156 18.5 -24.804688 C 18.582031 -23.988281 17.683594 -22.839844 16.046875 -21.777344 C 12.6875 -19.566406 2.621094 -15.964844 5.074219 -19.238281 Z M 5.074219 -19.238281 "/></g></g></g><g fill="#f4f4f4" fill-opacity="1"><g transform="translate(745.974855, 107.926374)"><g><path d="M 54.113281 -21.285156 C 53.703125 -21.695312 53.214844 -21.941406 52.640625 -21.941406 C 52.066406 -21.941406 51.496094 -21.777344 51.085938 -21.367188 C 41.015625 -11.707031 15.226562 -16.046875 5.976562 -19.15625 C 4.09375 -19.730469 4.175781 -20.464844 5.320312 -21.613281 C 11.132812 -28.164062 22.675781 -41.914062 21.121094 -47.566406 C 20.792969 -48.957031 19.648438 -50.019531 18.257812 -50.429688 C 16.78125 -50.839844 15.226562 -50.59375 13.917969 -49.773438 C 8.1875 -46.582031 3.355469 -32.910156 0.328125 -22.59375 L 0.246094 -22.429688 C -0.0820312 -22.1875 -0.246094 -21.777344 -0.328125 -21.367188 C -1.554688 -20.792969 -1.882812 -19.894531 -1.554688 -15.554688 C -1.554688 -15.390625 -1.554688 -15.308594 -1.636719 -15.226562 C -6.386719 4.175781 -10.5625 32.5 -5.238281 37.414062 C -4.585938 38.066406 -3.683594 38.394531 -2.785156 38.394531 C -2.292969 38.394531 -1.800781 38.3125 -1.390625 38.148438 C 6.796875 35.285156 5.484375 14.492188 3.355469 -8.351562 C 3.191406 -10.070312 3.027344 -11.789062 2.867188 -13.34375 C 2.785156 -14.734375 3.601562 -15.390625 4.992188 -14.898438 C 11.378906 -12.933594 17.929688 -11.707031 24.558594 -11.296875 C 33.976562 -10.644531 46.828125 -11.296875 54.03125 -18.257812 C 54.933594 -19.074219 54.933594 -20.464844 54.113281 -21.285156 Z M 16.046875 -46.089844 C 16.046875 -46.089844 16.535156 -46.664062 17.027344 -46.417969 C 17.929688 -45.925781 12.769531 -36.429688 8.1875 -31.683594 C 2.867188 -26.199219 13.835938 -44.289062 16.046875 -46.089844 Z M -2.539062 33.976562 C -5.566406 33.484375 -2.128906 -0.328125 -0.410156 -0.328125 C 1.308594 -0.328125 0.492188 34.464844 -2.539062 33.976562 Z M -2.539062 33.976562 "/></g></g></g></svg>